<?xml version="1.0" encoding="UTF-8" standalone="no"?>
<!-- Uploaded to: SVG Repo, www.svgrepo.com, Generator: SVG Repo Mixer Tools -->

<svg
   width="800px"
   height="800px"
   viewBox="0 0 48 48"
   fill="none"
   version="1.1"
   id="svg4"
   sodipodi:docname="forest-persons-svgrepo-com.svg"
   inkscape:version="1.4.2 (f4327f4, 2025-05-13)"
   xmlns:inkscape="http://www.inkscape.org/namespaces/inkscape"
   xmlns:sodipodi="http://sodipodi.sourceforge.net/DTD/sodipodi-0.dtd"
   xmlns="http://www.w3.org/2000/svg"
   xmlns:svg="http://www.w3.org/2000/svg">
  <defs
     id="defs4" />
  <sodipodi:namedview
     id="namedview4"
     pagecolor="#ffffff"
     bordercolor="#000000"
     borderopacity="0.25"
     inkscape:showpageshadow="2"
     inkscape:pageopacity="0.0"
     inkscape:pagecheckerboard="0"
     inkscape:deskcolor="#d1d1d1"
     inkscape:zoom="0.28359375"
     inkscape:cx="-1447.4931"
     inkscape:cy="-114.60055"
     inkscape:window-width="3840"
     inkscape:window-height="2054"
     inkscape:window-x="3829"
     inkscape:window-y="-11"
     inkscape:window-maximized="1"
     inkscape:current-layer="svg4" />
  <circle
     style="fill:#c6e9af;stroke:#000000;stroke-width:0.689724;stroke-linecap:round;stroke-linejoin:round"
     id="path3-8"
     cx="24"
     cy="24"
     r="23.655138" />
  <path
     d="m 16.724093,20.123513 c 0,-0.4569 0.370368,-0.827268 0.827269,-0.827268 0.4569,0 0.827269,0.370368 0.827269,0.827268 v 14.890838 c 0,0.456902 -0.370369,0.82727 -0.827269,0.82727 -0.456901,0 -0.827269,-0.370368 -0.827269,-0.82727 z"
     fill="#333333"
     id="path1"
     style="fill:#000000;stroke-width:0.827269" />
  <path
     d="m 10.105942,36.255255 c 0,-0.685309 0.555569,-1.240904 1.240904,-1.240904 h 27.299871 c 0.685309,0 1.240902,0.555595 1.240902,1.240904 0,0.68531 -0.555593,1.240903 -1.240902,1.240903 H 11.346846 c -0.685335,0 -1.240904,-0.555593 -1.240904,-1.240903 z"
     fill="#333333"
     id="path2"
     style="fill:#000000;stroke-width:0.827269" />
  <path
     d="m 37.17859,23.721712 -2.405261,-1.837233 c -0.28776,-0.223796 -0.637826,-0.338792 -0.99428,-0.326403 -0.434736,0.01149 -0.855293,0.166663 -1.203229,0.443951 -0.347935,0.277357 -0.605874,0.662934 -0.738074,1.103241 -0.148772,0.49569 -0.284764,0.830622 -0.407974,1.004865 -0.372165,0.527826 -0.855028,0.95611 -1.410114,1.250959 -0.555151,0.294847 -0.788794,0.447666 -1.787868,0.447666 -0.999074,0 -0.999074,1.700303 0,1.700303 0.999074,0 1.642025,-0.192752 2.389216,-0.56718 0.747193,-0.374428 1.406917,-0.920257 1.931849,-1.598133 l 0.557482,3.362273 -1.648548,1.470749 -1.778217,5.192729 1.503835,0.581463 1.631776,-4.764229 2.711657,-2.418622 c 0.222526,-0.191004 0.392865,-0.441911 0.49318,-0.726558 0.10025,-0.284719 0.126944,-0.592759 0.07715,-0.892128 l -0.407112,-2.452655 0.541508,0.418299 c 0,0 1.016646,1.529194 1.7014,2.489166 0.684754,0.960047 2.079222,0.0897 1.294224,-0.999762 -0.785001,-1.089471 -1.760711,-2.589805 -1.760711,-2.589805 z m -4.547388,-2.588711 c 0.424352,0 0.831264,-0.179198 1.131272,-0.498024 0.300008,-0.318899 0.468552,-0.751334 0.468552,-1.202278 0,-0.450947 -0.168544,-0.883456 -0.468552,-1.202281 -0.300008,-0.318898 -0.70692,-0.498023 -1.131272,-0.498023 -0.424285,0 -0.831197,0.179125 -1.131205,0.498023 -0.30001,0.318825 -0.468551,0.751334 -0.468551,1.202281 0,0.450944 0.168541,0.883379 0.468551,1.202278 0.300008,0.318826 0.70692,0.498024 1.131205,0.498024 z m 2.377302,11.20573 2.570874,3.256022 1.651809,-0.434404 -2.806845,-3.672645 -0.59669,-1.853338 -1.432676,1.275227 z"
     fill="#333333"
     id="path3"
     style="fill:#000000;stroke-width:0.696483" />
  <path
     fill-rule="evenodd"
     clip-rule="evenodd"
     d="m 22.388403,13.796727 c 0.08281,-0.359531 0.126572,-0.733954 0.126572,-1.118633 0,-2.7413286 -2.222293,-4.9636121 -4.963613,-4.9636121 -2.741321,0 -4.963613,2.2222835 -4.963613,4.9636121 0,0.384679 0.04376,0.759102 0.126563,1.118633 -1.528138,0.607794 -2.60837,2.100269 -2.60837,3.844979 0,0.409333 0.05945,0.804685 0.170178,1.178032 -1.0821747,0.544095 -1.8247147,1.664465 -1.8247147,2.958312 0,1.827521 1.481523,3.309076 3.3090747,3.309076 h 11.581763 c 1.82752,0 3.309075,-1.481555 3.309075,-3.309076 0,-1.293847 -0.742556,-2.414217 -1.824707,-2.958312 0.110695,-0.373347 0.17017,-0.768699 0.17017,-1.178032 0,-1.74471 -1.080247,-3.237185 -2.608378,-3.844979 z"
     fill="#333333"
     id="path4"
     style="fill:#000000;stroke-width:0.827269" />
</svg>
