<?xml version="1.0" encoding="UTF-8" standalone="no"?>
<!-- Uploaded to: SVG Repo, www.svgrepo.com, Generator: SVG Repo Mixer Tools -->

<svg
   fill="#000000"
   height="800px"
   width="800px"
   version="1.1"
   id="Capa_1"
   viewBox="0 0 491.096 491.096"
   xml:space="preserve"
   sodipodi:docname="climbing-with-rope-svgrepo-com.svg"
   inkscape:version="1.4.2 (f4327f4, 2025-05-13)"
   xmlns:inkscape="http://www.inkscape.org/namespaces/inkscape"
   xmlns:sodipodi="http://sodipodi.sourceforge.net/DTD/sodipodi-0.dtd"
   xmlns="http://www.w3.org/2000/svg"
   xmlns:svg="http://www.w3.org/2000/svg"><defs
   id="defs2" /><sodipodi:namedview
   id="namedview2"
   pagecolor="#ffffff"
   bordercolor="#000000"
   borderopacity="0.25"
   inkscape:showpageshadow="2"
   inkscape:pageopacity="0.0"
   inkscape:pagecheckerboard="0"
   inkscape:deskcolor="#d1d1d1"
   inkscape:zoom="1.134375"
   inkscape:cx="450.46832"
   inkscape:cy="392.72727"
   inkscape:window-width="3840"
   inkscape:window-height="2054"
   inkscape:window-x="3829"
   inkscape:window-y="-11"
   inkscape:window-maximized="1"
   inkscape:current-layer="Capa_1" />
<ellipse
   style="fill:#a7e6e3;fill-opacity:1;stroke:#000000;stroke-width:6.08166;stroke-linecap:round;stroke-linejoin:round"
   id="path2-0"
   cx="244.01332"
   cy="245.5432"
   rx="244.03224"
   ry="242.50238" /><g
   id="g2"
   transform="matrix(0.67815628,0,0,0.67815628,79.631454,72.012254)">
	<path
   d="M 422.835,247.992 C 413.287,222.469 384.58,145.899 384.58,145.899 378.275,129.095 359.555,120.57 342.745,126.873 l -27.255,10.213 -43.302,7.746 -44.96,-43.15 c -3.596,-3.48 -8.371,-4.745 -12.99,-4.251 L 169.596,5.939 c -1.942,-4.036 -6.797,-5.724 -10.888,-3.75 -4.044,1.974 -5.73,6.853 -3.756,10.896 l 45.975,94.214 c -2.448,6.002 -1.238,13.134 3.729,17.895 l 9.39,9.003 59.605,122.176 -14.457,45.857 -20.503,-14.033 c -7.164,-4.902 -12.035,-12.488 -13.501,-21.037 l -15.824,-91.811 c -0.587,-3.446 -1.75,-6.765 -3.408,-9.83 L 175.203,108.686 147.915,9.482 C 146.369,3.886 141.278,0 135.464,0 H 78.729 C 71.611,0 65.83,5.78 65.83,12.904 v 463.251 c 0,7.125 5.781,12.902 12.898,12.902 h 270.157 c 4.619,0 8.918,-2.483 11.208,-6.511 2.293,-4.02 2.261,-8.971 -0.096,-12.958 l -46.358,-78.469 c -1.019,-1.72 -1.863,-3.534 -2.546,-5.404 l -18.068,-49.973 c 5.174,-2.953 9.314,-7.722 11.256,-13.844 l 0.507,-1.654 81.129,166.273 c 1.398,2.899 4.295,4.577 7.32,4.577 1.195,0 2.421,-0.262 3.568,-0.827 4.043,-1.974 5.73,-6.853 3.756,-10.896 l -40.752,-83.525 c 0.315,0.016 0.619,0.16 0.955,0.16 1.846,0 3.756,-0.214 5.634,-0.661 13.15,-3.103 21.286,-16.277 18.181,-29.419 l -13.722,-58.068 43.81,-26.474 c 8.599,-5.206 13.988,-17.832 8.168,-33.392 z m -174.691,-81.056 7.452,7.164 c 3.056,2.945 7.132,4.545 11.304,4.545 0.955,0 1.91,-0.088 2.865,-0.256 l 53.747,-9.624 20.518,54.758 -34.75,-7.172 c -12.291,-2.531 -24.486,4.641 -28.258,16.604 l -0.272,0.835 z m 63.776,130.717 9.107,-28.941 14.948,3.088 -5.65,3.422 c -9.106,5.492 -13.597,16.215 -11.16,26.546 l 4.918,20.864 z"
   id="path1" />
	<path
   d="m 322.633,121.93 c 20.203,0 36.585,-16.38 36.585,-36.591 0,-20.203 -16.382,-36.583 -36.585,-36.583 -20.199,0 -36.598,16.38 -36.598,36.583 10e-4,20.211 16.399,36.591 36.598,36.591 z"
   id="path2" />
</g>
</svg>
