<?xml version="1.0" encoding="UTF-8" standalone="no"?>
<!-- Uploaded to: SVG Repo, www.svgrepo.com, Generator: SVG Repo Mixer Tools -->

<svg
   fill="#000000"
   height="800px"
   width="800px"
   version="1.1"
   id="Capa_1"
   viewBox="0 0 495.017 495.017"
   xml:space="preserve"
   sodipodi:docname="empresas_escalada.svg"
   inkscape:version="1.4.2 (f4327f4, 2025-05-13)"
   xmlns:inkscape="http://www.inkscape.org/namespaces/inkscape"
   xmlns:sodipodi="http://sodipodi.sourceforge.net/DTD/sodipodi-0.dtd"
   xmlns="http://www.w3.org/2000/svg"
   xmlns:svg="http://www.w3.org/2000/svg"><defs
   id="defs5" /><sodipodi:namedview
   id="namedview5"
   pagecolor="#ffffff"
   bordercolor="#000000"
   borderopacity="0.25"
   inkscape:showpageshadow="2"
   inkscape:pageopacity="0.0"
   inkscape:pagecheckerboard="0"
   inkscape:deskcolor="#d1d1d1"
   inkscape:zoom="1.6042485"
   inkscape:cx="281.44019"
   inkscape:cy="318.21753"
   inkscape:window-width="3840"
   inkscape:window-height="2054"
   inkscape:window-x="3829"
   inkscape:window-y="-11"
   inkscape:window-maximized="1"
   inkscape:current-layer="Capa_1" />
<circle
   style="fill:#ffe6d5;stroke:#000000;stroke-width:7.11304;stroke-linecap:round;stroke-linejoin:round"
   id="path2-0"
   cx="247.5085"
   cy="247.5085"
   r="243.95198" /><g
   id="g5"
   transform="matrix(0.61430617,0,0,0.61430617,96.301462,92.532987)">
	<path
   d="m 271.32,78.354 c 21.633,0 39.192,-17.54 39.192,-39.182 C 310.513,17.541 292.953,0 271.32,0 c -21.633,0 -39.175,17.541 -39.175,39.173 10e-4,21.641 17.543,39.181 39.175,39.181 z"
   id="path1" />
	<path
   d="m 312.763,349.373 -47.021,-43.163 2.087,-15.884 -70.055,-4.301 c -4.173,6.412 -9.963,14.482 -17.193,23.104 l -19.17,72.416 -54.928,73.797 c -8.185,11.007 -5.92,26.567 5.095,34.76 4.449,3.314 9.658,4.916 14.817,4.916 7.583,0 15.058,-3.461 19.941,-10.011 l 57.794,-77.641 c 1.893,-2.539 3.284,-5.417 4.092,-8.475 l 16.625,-62.781 45.518,41.786 -6.211,90.579 c -0.938,13.691 9.381,25.548 23.083,26.485 0.565,0.041 1.146,0.057 1.73,0.057 12.938,0 23.859,-10.035 24.748,-23.146 l 7.036,-102.498 c 0.518,-7.53 -2.426,-14.896 -7.988,-20 z"
   id="path2" />
	<path
   d="m 398.667,183.428 h -70.005 l -39.482,-56.053 0.13,-0.956 c 1.405,-10.708 -1.506,-21.537 -8.091,-30.101 -6.581,-8.564 -16.288,-14.16 -26.994,-15.567 -11.858,-1.545 -23.1,2.271 -31.54,9.429 V 43.548 c 0,-8.022 -6.503,-14.532 -14.542,-14.532 h -40.277 c -8.038,0 -14.542,6.51 -14.542,14.532 v 22.637 h -12.033 c -8.586,0 -16.628,4.255 -21.463,11.363 -4.836,7.108 -5.838,16.149 -2.684,24.149 l 36.18,91.856 v 22.718 c 0,11.152 4.58,21.125 11.876,28.427 5.046,-6.082 12.743,-9.713 20.526,-9.195 l 88.571,5.443 6.938,-52.94 19.767,28.047 c 3.881,5.507 10.19,8.783 16.921,8.783 h 80.744 c 11.437,0 20.701,-9.268 20.701,-20.702 -10e-4,-11.438 -9.264,-20.706 -20.701,-20.706 z"
   id="path3" />
	<path
   d="m 191.093,273.166 82.25,5.055 c 7.117,0.55 12.748,-4.789 13.166,-11.64 0.422,-6.849 -4.786,-12.737 -11.643,-13.157 l -89.903,-5.523 c -5.015,-0.348 -9.573,2.352 -11.805,6.737 -2.039,3.97 -50.771,96.822 -143.537,83.768 -6.662,-0.906 -13.068,3.777 -14.023,10.569 -0.954,6.794 3.768,13.078 10.563,14.032 7.198,1.011 14.169,1.488 20.895,1.488 81.168,-0.008 130.063,-68.58 144.037,-91.329 z"
   id="path4" />
	<path
   d="m 476.659,251.313 c -14.223,-9.793 -36.401,-18.891 -66.555,-18.488 -35.468,0.473 -68.598,27.748 -69.198,28.412 -6.13,6.835 -5.562,17.348 1.278,23.478 6.824,6.139 17.339,5.564 23.469,-1.268 l 0.114,-0.13 c 0,0 19.495,-20.418 36.814,-24.925 l -5.822,215.844 c 0,0.307 0,0.678 0,0.994 0.289,10.198 8.765,18.236 18.955,17.963 10.206,-0.276 18.245,-8.759 17.985,-18.957 l -5.951,-221.215 c 27.271,0.444 43.739,8.938 43.739,8.938 2.65,1.035 5.741,0.022 7.242,-2.501 1.685,-2.823 0.63,-6.286 -2.07,-8.145 z"
   id="path5" />
</g>
</svg>
