<?xml version="1.0" encoding="UTF-8" standalone="no"?>
<!-- Uploaded to: SVG Repo, www.svgrepo.com, Generator: SVG Repo Mixer Tools -->

<svg
   fill="#000000"
   width="800px"
   height="800px"
   viewBox="0 0 50 50"
   version="1.2"
   overflow="inherit"
   id="svg1"
   sodipodi:docname="empresas_escalada.svg"
   inkscape:version="1.4.2 (f4327f4, 2025-05-13)"
   xmlns:inkscape="http://www.inkscape.org/namespaces/inkscape"
   xmlns:sodipodi="http://sodipodi.sourceforge.net/DTD/sodipodi-0.dtd"
   xmlns="http://www.w3.org/2000/svg"
   xmlns:svg="http://www.w3.org/2000/svg">
  <defs
     id="defs1" />
  <sodipodi:namedview
     id="namedview1"
     pagecolor="#ffffff"
     bordercolor="#000000"
     borderopacity="0.25"
     inkscape:showpageshadow="2"
     inkscape:pageopacity="0.0"
     inkscape:pagecheckerboard="0"
     inkscape:deskcolor="#d1d1d1"
     inkscape:zoom="0.80212426"
     inkscape:cx="1191.2119"
     inkscape:cy="173.9132"
     inkscape:window-width="3840"
     inkscape:window-height="2054"
     inkscape:window-x="3829"
     inkscape:window-y="-11"
     inkscape:window-maximized="1"
     inkscape:current-layer="svg1" />
  <circle
     style="fill:#d5d5ff;stroke:#000000;stroke-width:0.718464;stroke-linecap:round;stroke-linejoin:round"
     id="path2"
     cx="25"
     cy="25"
     r="24.640768" />
  <path
     d="m 13.522958,23.276473 c -0.138447,0.272353 -0.239252,0.574084 -0.292207,0.898461 -0.0236,0.160964 -0.03891,0.323764 -0.03891,0.48534 l 0.123135,7.420873 -2.682814,5.522966 c -0.09251,0.1628 -0.161416,0.352529 -0.19204,0.552051 -0.146742,0.91315 0.50849,1.760201 1.464223,1.900355 0.740087,0.110166 1.448911,-0.25032 1.788331,-0.848274 l 2.951416,-6.037071 c 0.06125,-0.140155 0.116117,-0.287655 0.138447,-0.449231 l 0.01595,-0.227676 -0.02297,-4.587782 4.535584,1.892399 0.732432,4.483737 c 0.146103,0.655485 0.708824,1.179384 1.441254,1.288937 0.955734,0.132199 1.841924,-0.493909 1.989304,-1.39849 0.02233,-0.154844 0.02233,-0.309688 0.0071,-0.456575 l -0.893846,-5.4128 c -0.107823,-0.522674 -0.469572,-0.971905 -0.978701,-1.200804 l -4.05389,-1.72103 2.581372,-4.292785 1.280478,1.553947 c 0.130791,0.139542 0.300501,0.257665 0.492541,0.331108 l 4.87947,1.361769 c 0.648213,0.13281 1.311102,-0.190342 1.564389,-0.787072 0.285189,-0.677518 -0.05296,-1.443168 -0.75476,-1.715522 l -0.06954,-0.02203 -4.23955,-1.192849 -3.191305,-3.659331 c -0.477867,-0.485952 -1.117787,-0.83175 -1.857236,-0.94314 -1.295152,-0.183609 -2.52459,0.405165 -3.172166,1.406447 z m 13.997213,10.639542 -0.308158,2.223508 -8.393606,1.950541 0.08103,1.374622 h 20.471058 c 0.725413,0 1.311102,-0.558172 1.311102,-1.250379 l -0.02297,-26.359552 -2.804675,-0.625496 -1.611602,6.930025 -2.694299,1.08207 -2.389333,6.390213 2.270026,4.889513 -0.639282,1.877099 z m -5.699307,-18.22444 c 1.441255,0 2.612634,-1.118792 2.612634,-2.495861 -6.38e-4,-1.376457 -1.171379,-2.496474 -2.612634,-2.496474 -1.441256,0 -2.613273,1.120017 -2.613273,2.496474 -6.38e-4,1.377069 1.171379,2.495861 2.613273,2.495861 z m -5.199111,0.390476 c 0.200334,-0.338453 0.08422,-0.780339 -0.277532,-0.971905 L 15.079693,14.40325 c -0.36175,-0.191565 -0.817286,-0.08079 -1.025276,0.26501 l -3.899492,6.428771 c -0.2003344,0.338453 -0.08485,0.772995 0.276894,0.971905 l 1.272184,0.700163 c 0.354093,0.198298 0.80963,0.08079 1.016981,-0.258277 z"
     id="path1"
     style="stroke-width:0.624884" />
</svg>
