<?xml version="1.0" encoding="UTF-8" standalone="no"?>
<!-- Uploaded to: SVG Repo, www.svgrepo.com, Generator: SVG Repo Mixer Tools -->

<svg
   fill="#000000"
   height="800px"
   width="800px"
   version="1.1"
   id="Capa_1"
   viewBox="0 0 496.081 496.081"
   xml:space="preserve"
   sodipodi:docname="snowboard-svgrepo-com.svg"
   inkscape:version="1.4.2 (f4327f4, 2025-05-13)"
   xmlns:inkscape="http://www.inkscape.org/namespaces/inkscape"
   xmlns:sodipodi="http://sodipodi.sourceforge.net/DTD/sodipodi-0.dtd"
   xmlns="http://www.w3.org/2000/svg"
   xmlns:svg="http://www.w3.org/2000/svg"><defs
   id="defs1" /><sodipodi:namedview
   id="namedview1"
   pagecolor="#ffffff"
   bordercolor="#000000"
   borderopacity="0.25"
   inkscape:showpageshadow="2"
   inkscape:pageopacity="0.0"
   inkscape:pagecheckerboard="0"
   inkscape:deskcolor="#d1d1d1"
   inkscape:zoom="1.134375"
   inkscape:cx="568.59504"
   inkscape:cy="390.08264"
   inkscape:window-width="3840"
   inkscape:window-height="2054"
   inkscape:window-x="3829"
   inkscape:window-y="-11"
   inkscape:window-maximized="1"
   inkscape:current-layer="Capa_1" />
<circle
   style="opacity:1;fill:#d5fff6;stroke:#000000;stroke-width:12.0995;stroke-linecap:round;stroke-linejoin:round"
   id="path1"
   cx="248.04048"
   cy="248.04051"
   r="241.99074" /><g
   id="XMLID_472_"
   transform="matrix(0.59334413,0,0,0.59334413,72.881753,107.23282)">
	<path
   id="XMLID_473_"
   d="m 426.801,75.364 c 17.369,-16.942 17.705,-44.75 0.781,-62.102 -16.924,-17.369 -44.696,-17.722 -62.045,-0.8 -17.351,16.924 -17.742,44.697 -0.8,62.048 16.87,17.388 44.695,17.741 62.064,0.854 z" />
	<path
   id="XMLID_474_"
   d="m 475.919,453.714 c -4.384,-9.529 -15.642,-13.729 -25.229,-9.326 -19.022,8.75 -39.124,20.1 -69.05,9.066 L 333.527,435.639 361.894,330.68 c 2.527,-9.362 0.131,-19.375 -6.369,-26.564 l -60.319,-66.804 40.163,-39.121 6.092,19.729 c 2.359,7.672 8.451,13.636 16.162,15.847 l 75.867,21.751 c 12.541,3.605 25.766,-3.602 29.406,-16.29 3.621,-12.633 -3.678,-25.805 -16.293,-29.406 l -63.492,-18.207 -9.588,-31.023 c 12.781,-14.696 12.523,-36.894 -1.301,-51.085 L 360.966,97.952 c -5.072,-5.202 -13.561,-9.53 -17.798,-10.607 l -93.05,-23.854 c -8.47,-2.191 -17.518,0.502 -23.424,6.966 l -55.99,61.025 c -8.879,9.679 -8.229,24.706 1.45,33.585 9.659,8.899 24.745,8.193 33.585,-1.448 l 46.367,-50.527 30.986,7.951 -66.206,64.498 c -11.016,9.843 -19.396,22.512 -13.543,36.427 l 26.174,62.29 -126.933,65.926 -1.376,-0.501 C 71.318,338.591 63.46,316.896 54.711,297.872 c -4.384,-9.529 -15.642,-13.727 -25.227,-9.325 -9.547,4.384 -13.729,15.681 -9.325,25.228 8.749,19.023 22.067,54.634 67.86,71.576 L 368.453,489.12 c 45.773,17.017 79.118,-1.43 98.142,-10.179 9.548,-4.384 13.728,-15.68 9.324,-25.227 z M 279.155,322.804 c 3.773,-1.949 6.744,-4.774 9.196,-7.934 l 14.397,15.941 -22.996,84.933 -104.939,-38.825 z" />
</g>
</svg>
