<?xml version="1.0" encoding="UTF-8" standalone="no"?>
<!-- Uploaded to: SVG Repo, www.svgrepo.com, Generator: SVG Repo Mixer Tools -->

<svg
   width="800px"
   height="800px"
   viewBox="0 0 24 24"
   fill="none"
   version="1.1"
   id="svg1"
   sodipodi:docname="glaciar.svg"
   inkscape:version="1.4.2 (f4327f4, 2025-05-13)"
   xmlns:inkscape="http://www.inkscape.org/namespaces/inkscape"
   xmlns:sodipodi="http://sodipodi.sourceforge.net/DTD/sodipodi-0.dtd"
   xmlns="http://www.w3.org/2000/svg"
   xmlns:svg="http://www.w3.org/2000/svg">
  <defs
     id="defs1" />
  <sodipodi:namedview
     id="namedview1"
     pagecolor="#ffffff"
     bordercolor="#000000"
     borderopacity="0.25"
     inkscape:showpageshadow="2"
     inkscape:pageopacity="0.0"
     inkscape:pagecheckerboard="0"
     inkscape:deskcolor="#d1d1d1"
     inkscape:zoom="0.80212426"
     inkscape:cx="-14.336931"
     inkscape:cy="574.10058"
     inkscape:window-width="3840"
     inkscape:window-height="2054"
     inkscape:window-x="3829"
     inkscape:window-y="-11"
     inkscape:window-maximized="1"
     inkscape:current-layer="svg1" />
  <ellipse
     style="opacity:1;fill:#d7eef4;stroke:#000000;stroke-width:0.344862;stroke-linecap:round;stroke-linejoin:round"
     id="path2"
     cx="12.000001"
     cy="12"
     rx="11.827568"
     ry="11.827569" />
  <path
     d="M 12,16.050598 9.569641,18.480957 M 12,16.050598 14.430358,18.480957 M 12,16.050598 V 12 m 0,4.050598 v 3.240478 M 12,7.9494022 9.569641,5.5190435 M 12,7.9494022 14.430358,5.5190435 M 12,7.9494022 V 12 M 12,7.9494022 V 4.7089239 M 12,12 8.4920604,9.974661 M 12,12 15.507898,14.025218 M 12,12 8.4920604,14.025218 M 12,12 15.507898,9.974661 m 0,4.050557 0.889593,3.319951 m -0.889593,-3.319951 3.319952,-0.889511 m -3.319952,0.889511 2.806417,1.62032 M 8.4920604,9.974661 5.1721337,10.864212 M 8.4920604,9.974661 7.6024924,6.6547258 M 8.4920604,9.974661 5.6857738,8.354462 m 9.8221242,1.620199 3.319952,0.889551 M 15.507898,9.974661 16.397491,6.6547258 M 15.507898,9.974661 18.314315,8.354462 m -9.8222546,5.670756 -0.889568,3.319951 m 0.889568,-3.319951 -3.3199267,-0.889511 m 3.3199267,0.889511 -2.8062866,1.62032"
     stroke="#000000"
     stroke-width="1.21518"
     stroke-linecap="round"
     stroke-linejoin="round"
     id="path1" />
</svg>
