<?xml version="1.0" encoding="UTF-8" standalone="no"?>
<!-- Uploaded to: SVG Repo, www.svgrepo.com, Generator: SVG Repo Mixer Tools -->

<svg
   fill="#000000"
   height="800px"
   width="800px"
   version="1.1"
   id="Layer_1"
   viewBox="0 0 512.011 512.011"
   xml:space="preserve"
   sodipodi:docname="hotel.svg"
   inkscape:version="1.4.2 (f4327f4, 2025-05-13)"
   xmlns:inkscape="http://www.inkscape.org/namespaces/inkscape"
   xmlns:sodipodi="http://sodipodi.sourceforge.net/DTD/sodipodi-0.dtd"
   xmlns="http://www.w3.org/2000/svg"
   xmlns:svg="http://www.w3.org/2000/svg"><defs
   id="defs2" /><sodipodi:namedview
   id="namedview2"
   pagecolor="#ffffff"
   bordercolor="#000000"
   borderopacity="0.25"
   inkscape:showpageshadow="2"
   inkscape:pageopacity="0.0"
   inkscape:pagecheckerboard="0"
   inkscape:deskcolor="#d1d1d1"
   inkscape:zoom="0.80212426"
   inkscape:cx="470.00199"
   inkscape:cy="268.66162"
   inkscape:window-width="3840"
   inkscape:window-height="2054"
   inkscape:window-x="3829"
   inkscape:window-y="-11"
   inkscape:window-maximized="1"
   inkscape:current-layer="Layer_1" />
<circle
   style="fill:#fff6d5;stroke:#000000;stroke-width:6.62201;stroke-linecap:round;stroke-linejoin:round"
   id="path2-0"
   cx="256.01047"
   cy="256.00452"
   r="252.69447" /><g
   id="g2"
   transform="matrix(0.64142659,0,0,0.64142659,89.765375,83.855855)"
   style="fill:#666666">
	<g
   id="g1"
   style="fill:#666666">
		<path
   d="M 496.304,228.896 271.003,6.176 c -8.32,-8.235 -21.675,-8.235 -29.995,0 L 15.707,228.896 c -0.021,0 -0.043,0.043 -0.085,0.064 -10.07,10.091 -15.617,23.488 -15.617,37.717 0,14.251 5.547,27.648 15.616,37.717 1.771,1.749 3.755,3.136 5.717,4.587 v 181.696 c 0,11.776 9.557,21.333 21.333,21.333 h 426.667 c 11.776,0 21.333,-9.557 21.333,-21.333 V 309.088 c 1.963,-1.493 3.947,-2.923 5.717,-4.693 10.069,-10.069 15.616,-23.467 15.616,-37.717 10e-4,-14.23 -5.545,-27.627 -15.7,-37.782 z M 341.339,426.677 c 0,11.776 -9.557,21.333 -21.333,21.333 -11.776,0 -21.333,-9.557 -21.333,-21.333 v -64 H 213.34 v 64 c 0,11.776 -9.557,21.333 -21.333,21.333 -11.776,0 -21.333,-9.557 -21.333,-21.333 V 256.011 c 0,-11.776 9.557,-21.333 21.333,-21.333 11.776,0 21.333,9.557 21.333,21.333 v 64 h 85.333 v -64 c 0,-11.776 9.557,-21.333 21.333,-21.333 11.776,0 21.333,9.557 21.333,21.333 V 426.677 Z M 466.224,274.229 c -0.939,0.917 -2.027,1.557 -3.157,2.069 -0.277,0.085 -0.576,0.085 -0.832,0.192 -1.472,0.512 -3.243,0.747 -5.035,0.555 -0.384,-0.064 -0.747,-0.128 -1.131,-0.213 -0.619,-0.149 -1.237,-0.299 -1.835,-0.555 -1.109,-0.512 -2.197,-1.152 -3.115,-2.048 L 271.088,94.176 c -4.16,-4.16 -9.621,-6.251 -15.083,-6.251 -5.461,0 -10.923,2.091 -15.083,6.251 L 60.891,274.229 c -0.939,0.896 -2.005,1.536 -3.115,2.048 -0.597,0.256 -1.216,0.405 -1.835,0.555 -0.363,0.085 -0.747,0.149 -1.109,0.213 -1.813,0.192 -3.584,-0.043 -5.056,-0.555 -0.256,-0.107 -0.555,-0.107 -0.832,-0.192 -1.131,-0.512 -2.219,-1.152 -3.157,-2.091 -2.709,-2.709 -3.115,-5.867 -3.115,-7.531 0,-1.643 0.405,-4.8 3.115,-7.531 L 256.005,51.339 466.224,259.126 c 2.709,2.731 3.115,5.909 3.115,7.552 0,1.663 -0.406,4.821 -3.115,7.551 z"
   id="path1"
   style="fill:#666666" />
	</g>
</g>
</svg>
