<?xml version="1.0" encoding="UTF-8" standalone="no"?>
<!-- Uploaded to: SVG Repo, www.svgrepo.com, Generator: SVG Repo Mixer Tools -->

<svg
   fill="#000000"
   height="183.16859mm"
   width="183.16858mm"
   version="1.1"
   id="Capa_1"
   viewBox="0 0 419.40354 419.40358"
   xml:space="preserve"
   xmlns="http://www.w3.org/2000/svg"
   xmlns:svg="http://www.w3.org/2000/svg"><defs
   id="defs3" />
<circle
   style="opacity:1;fill:#487a74;fill-opacity:1;stroke:#616161;stroke-width:0.228971;stroke-linecap:round;stroke-linejoin:round"
   id="path4"
   cx="209.70178"
   cy="209.70178"
   r="209.5873" /><g
   id="g3"
   transform="matrix(0.56551293,0,0,0.56551293,72.663846,78.107199)">
	<path
   d="m 451.074,438.034 h -9.837 V 195.806 h -0.008 c -12.084,0 -23.525,-3.944 -33.045,-10.585 -6.411,4.508 -13.791,7.84 -21.954,9.467 -3.746,0.746 -7.553,1.118 -11.322,1.118 -2.499,0 -4.943,-0.278 -7.371,-0.595 v 180.184 c 0,10.282 -8.339,18.62 -18.629,18.62 h -66.923 v -51.032 l 23.595,39.378 c 2.785,4.657 7.72,7.236 12.782,7.236 2.595,0 5.237,-0.683 7.634,-2.119 7.045,-4.228 9.338,-13.362 5.108,-20.414 l -47.429,-79.167 c -2.936,-4.912 -8.268,-7.339 -13.607,-7.037 -0.357,-0.033 -54.953,-0.041 -55.286,-0.017 -5.411,-0.372 -10.822,2.079 -13.805,7.054 l -47.43,79.167 c -4.229,7.052 -1.937,16.186 5.109,20.414 2.397,1.436 5.039,2.119 7.634,2.119 5.062,0 9.997,-2.579 12.782,-7.236 l 23.746,-39.631 v 51.285 h -67.066 c -10.291,0 -18.629,-8.337 -18.629,-18.62 V 195.211 c -2.427,0.317 -4.872,0.595 -7.371,0.595 -3.745,0 -7.554,-0.372 -11.361,-1.126 -8.157,-1.626 -15.52,-4.951 -21.923,-9.459 -9.52,6.641 -20.953,10.585 -33.038,10.585 h -0.008 v 242.228 h -9.837 c -12.877,0 -23.311,10.433 -23.311,23.311 0,12.877 10.434,23.311 23.311,23.311 h 417.492 c 12.878,0 23.311,-10.434 23.311,-23.311 -0.003,-12.878 -10.436,-23.311 -23.314,-23.311 z"
   id="path1" />
	<path
   d="m 242.321,197.226 c -17.115,0 -31.007,15.877 -31.007,35.474 0,19.581 13.892,35.473 31.007,35.473 17.13,0 31.015,-15.892 31.015,-35.473 -0.001,-19.597 -13.885,-35.474 -31.015,-35.474 z"
   id="path2" />
	<path
   d="m 33.938,169.553 c 3.167,0.936 6.356,1.387 9.506,1.387 14.265,0 27.453,-9.29 31.744,-23.666 l 1.745,-5.832 c 1.563,13.973 11.798,25.968 26.318,28.857 2.181,0.436 4.363,0.642 6.506,0.642 15.495,0 29.34,-10.916 32.482,-26.682 l 0.809,-4.054 c 1.143,15.78 13.409,28.952 29.689,30.57 1.12,0.11 2.23,0.158 3.333,0.158 16.821,0 31.237,-12.757 32.943,-29.863 l 0.246,-2.46 c 0.452,17.923 15.044,32.323 33.07,32.323 18.025,0 32.617,-14.4 33.069,-32.323 l 0.245,2.46 c 1.707,17.106 16.123,29.863 32.944,29.863 1.103,0 2.213,-0.047 3.332,-0.158 16.28,-1.618 28.555,-14.79 29.689,-30.57 l 0.809,4.054 c 3.143,15.773 16.987,26.682 32.481,26.682 2.144,0 4.326,-0.206 6.507,-0.642 14.52,-2.889 24.764,-14.884 26.318,-28.857 l 1.745,5.832 c 4.292,14.377 17.479,23.666 31.744,23.666 3.149,0 6.339,-0.452 9.506,-1.387 17.549,-5.246 27.515,-23.716 22.279,-41.25 L 443.076,28.158 C 438.086,11.449 422.718,0 405.279,0 H 79.377 C 61.938,0 46.57,11.449 41.58,28.158 L 11.659,128.303 c -5.236,17.534 4.73,36.004 22.279,41.25 z"
   id="path3" />
</g>
</svg>
