<?xml version="1.0" encoding="UTF-8" standalone="no"?>
<!-- Uploaded to: SVG Repo, www.svgrepo.com, Generator: SVG Repo Mixer Tools -->

<svg
   width="800px"
   height="800px"
   viewBox="0 0 24 24"
   fill="none"
   version="1.1"
   id="svg1"
   sodipodi:docname="mirador.svg"
   inkscape:version="1.4.2 (f4327f4, 2025-05-13)"
   xmlns:inkscape="http://www.inkscape.org/namespaces/inkscape"
   xmlns:sodipodi="http://sodipodi.sourceforge.net/DTD/sodipodi-0.dtd"
   xmlns="http://www.w3.org/2000/svg"
   xmlns:svg="http://www.w3.org/2000/svg">
  <defs
     id="defs1" />
  <sodipodi:namedview
     id="namedview1"
     pagecolor="#ffffff"
     bordercolor="#000000"
     borderopacity="0.25"
     inkscape:showpageshadow="2"
     inkscape:pageopacity="0.0"
     inkscape:pagecheckerboard="0"
     inkscape:deskcolor="#d1d1d1"
     inkscape:zoom="0.5671875"
     inkscape:cx="556.25344"
     inkscape:cy="171.90083"
     inkscape:window-width="3840"
     inkscape:window-height="2054"
     inkscape:window-x="3829"
     inkscape:window-y="-11"
     inkscape:window-maximized="1"
     inkscape:current-layer="svg1" />
  <circle
     style="opacity:1;fill:#ffeeaa;stroke:#000000;stroke-width:0.344862;stroke-linecap:round;stroke-linejoin:round"
     id="path2"
     cx="12"
     cy="12"
     r="11.827568" />
  <path
     fill-rule="evenodd"
     clip-rule="evenodd"
     d="M20.7703 12C20.7703 11.6412 20.5762 11.4056 20.188 10.9343C18.768 9.21014 15.6357 6 12 6C8.36428 6 5.23207 9.21014 3.81198 10.9343C3.42382 11.4056 3.22974 11.6412 3.22974 12C3.22974 12.3588 3.42382 12.5944 3.81198 13.0657C5.23207 14.7899 8.36428 18 12 18C15.6357 18 18.768 14.7899 20.188 13.0657C20.5762 12.5944 20.7703 12.3588 20.7703 12ZM12 15C13.6569 15 15 13.6569 15 12C15 10.3431 13.6569 9 12 9C10.3432 9 9.00002 10.3431 9.00002 12C9.00002 13.6569 10.3432 15 12 15Z"
     fill="#33363F"
     id="path1" />
</svg>
