<?xml version="1.0" encoding="UTF-8" standalone="no"?>
<!-- Uploaded to: SVG Repo, www.svgrepo.com, Generator: SVG Repo Mixer Tools -->

<svg
   height="800px"
   width="800px"
   version="1.1"
   id="_x32_"
   viewBox="0 0 512 512"
   xml:space="preserve"
   sodipodi:docname="piscina.svg"
   inkscape:version="1.4.2 (f4327f4, 2025-05-13)"
   xmlns:inkscape="http://www.inkscape.org/namespaces/inkscape"
   xmlns:sodipodi="http://sodipodi.sourceforge.net/DTD/sodipodi-0.dtd"
   xmlns="http://www.w3.org/2000/svg"
   xmlns:svg="http://www.w3.org/2000/svg"><defs
   id="defs2" /><sodipodi:namedview
   id="namedview2"
   pagecolor="#ffffff"
   bordercolor="#000000"
   borderopacity="0.25"
   inkscape:showpageshadow="2"
   inkscape:pageopacity="0.0"
   inkscape:pagecheckerboard="0"
   inkscape:deskcolor="#d1d1d1"
   inkscape:zoom="0.5671875"
   inkscape:cx="-2.6446281"
   inkscape:cy="117.24518"
   inkscape:window-width="3840"
   inkscape:window-height="2054"
   inkscape:window-x="3829"
   inkscape:window-y="-11"
   inkscape:window-maximized="1"
   inkscape:current-layer="_x32_" />
<style
   type="text/css"
   id="style1">
	.st0{fill:#000000;}
</style>
<circle
   style="opacity:1;fill:#a7e6e3;stroke:#000000;stroke-width:6.4;stroke-linecap:round;stroke-linejoin:round"
   id="path3"
   cx="256"
   cy="256"
   r="256" /><g
   id="g2"
   transform="matrix(0.58795052,0,0,0.61149477,101.97784,101.93267)">
	<path
   class="st0"
   d="M 327.042,199.711 H 196.888 c -0.928,0 -1.683,0.756 -1.683,1.683 v 68.736 c 0,0.928 0.755,1.683 1.683,1.683 h 130.155 c 0.928,0 1.683,-0.755 1.683,-1.683 v -68.736 c -10e-4,-0.927 -0.756,-1.683 -1.684,-1.683 z m -18.177,52.241 H 215.064 V 219.58 h 93.801 z"
   id="path1" />
	<path
   class="st0"
   d="m 510.317,235.614 c 0.928,0 1.683,-0.755 1.683,-1.683 v -21.995 c 0,-0.928 -0.755,-1.683 -1.683,-1.683 h -132.1 V 105.599 c -0.058,-22.184 -7.456,-43.374 -20.838,-59.679 -7.044,-8.481 -15.435,-15.271 -24.95,-20.173 -10.214,-5.188 -21.585,-7.93 -32.882,-7.93 -11.329,0 -22.708,2.742 -32.931,7.939 -13.998,7.201 -25.689,18.695 -33.808,33.227 -7.8,13.883 -11.922,30.008 -11.922,46.626 0,19.121 15.558,34.68 34.671,34.68 19.121,0 34.68,-15.558 34.68,-34.696 -0.057,-5.968 1.766,-11.724 4.893,-15.41 1.462,-1.766 2.694,-2.479 2.98,-2.627 0.706,-0.32 1.06,-0.386 1.437,-0.386 0.378,0 0.739,0.066 1.33,0.329 1.79,0.993 3.506,2.874 4.853,5.296 2.019,3.628 3.136,8.185 3.136,12.816 v 44.613 h -93.801 v -44.613 c 0,-22.134 -7.406,-43.326 -20.845,-59.688 -7.003,-8.457 -15.378,-15.238 -24.884,-20.173 -10.214,-5.188 -21.585,-7.93 -32.882,-7.93 -11.362,0 -22.766,2.742 -32.988,7.939 -14.032,7.25 -25.722,18.736 -33.801,33.227 -7.8,13.982 -11.93,30.106 -11.93,46.626 0,19.121 15.558,34.68 34.68,34.68 19.114,0 34.672,-15.558 34.672,-34.68 0,-5.895 1.872,-11.799 4.893,-15.427 1.018,-1.232 2.019,-2.11 2.972,-2.627 0.722,-0.329 1.084,-0.386 1.502,-0.386 0.329,0 0.69,0.066 1.281,0.329 1.79,0.993 3.53,2.881 4.902,5.296 1.986,3.563 3.079,8.12 3.079,12.816 V 210.259 H 1.683 C 0.756,210.259 0,211.015 0,211.942 v 21.995 c 0,0.928 0.756,1.683 1.683,1.683 h 144.031 c 0,0 0,121.378 0,121.502 -5.476,1.88 -10.033,4.146 -13.448,5.944 l -3.81,2.045 c -4.474,2.414 -8.349,4.507 -12.635,6.1 -4.418,1.592 -10.92,3.423 -22.036,3.48 -7.923,0 -14.138,-0.87 -20.155,-2.832 -3.366,-1.092 -6.56,-2.496 -10.69,-4.679 l -3.826,-2.045 c -4.417,-2.405 -9.425,-5.123 -15.656,-7.439 -9.138,-3.365 -19.032,-5 -30.755,-5 -0.008,0 -11.018,0 -11.018,0 -0.927,0 -1.683,0.756 -1.683,1.683 v 138.127 c 0,0.928 0.756,1.683 1.683,1.683 h 508.634 c 0.928,0 1.683,-0.755 1.683,-1.683 V 354.374 c 0,-0.928 -0.755,-1.683 -1.683,-1.683 h -11.001 c -10.517,0 -19.68,1.322 -28.014,4.04 -6.067,1.987 -11.002,4.426 -14.622,6.33 l -3.711,1.995 c -4.508,2.439 -8.407,4.548 -12.717,6.15 -4.417,1.592 -10.928,3.423 -22.094,3.48 -7.816,0 -14.22,-0.894 -20.156,-2.832 -3.366,-1.092 -6.56,-2.496 -10.681,-4.671 l -3.292,-1.774 c -1.831,-0.994 -3.76,-2.036 -5.812,-3.07 V 235.614 Z M 308.865,356.787 c -5.698,1.881 -10.492,4.22 -14.45,6.272 l -3.9,2.102 c -4.417,2.389 -8.235,4.458 -12.545,6.043 -4.368,1.592 -10.821,3.423 -22.028,3.48 -7.816,0 -14.22,-0.894 -20.156,-2.832 -3.341,-1.084 -6.535,-2.488 -10.681,-4.671 l -3.39,-1.823 c -2.069,-1.117 -4.269,-2.308 -6.65,-3.498 v -40.558 h 93.801 v 35.485 z m 49.491,-1.913 c -6.478,-1.469 -13.235,-2.184 -20.598,-2.184 h -0.706 c -2.939,0 -5.69,0.107 -8.326,0.296 v -49.86 c 0,-0.927 -0.755,-1.683 -1.683,-1.683 H 196.888 c -0.928,0 -1.683,0.756 -1.683,1.683 v 51.551 c -6.1,-1.322 -12.75,-1.987 -20.32,-1.987 -0.016,0 -0.024,0 -0.041,0 -3.44,0 -6.486,0.124 -9.26,0.37 V 105.607 c 0,-8.161 -1.962,-15.936 -5.666,-22.48 -3.308,-5.977 -7.972,-10.689 -13.128,-13.283 -3.375,-1.708 -6.774,-2.546 -10.386,-2.546 -3.612,0 -7.012,0.838 -10.378,2.546 -3.35,1.674 -6.56,4.318 -9.277,7.635 -6.052,7.241 -9.524,17.495 -9.524,28.128 0,8.168 -6.643,14.811 -14.812,14.811 -8.168,0 -14.811,-6.642 -14.811,-14.811 0,-13.112 3.251,-25.895 9.409,-36.954 6.223,-11.101 15.049,-19.827 25.517,-25.221 7.373,-3.769 15.64,-5.756 23.924,-5.756 8.21,0 16.445,1.986 23.818,5.756 7.053,3.628 13.334,8.726 18.662,15.131 10.492,12.758 16.272,29.458 16.272,47.044 v 62.799 c 0,0.928 0.755,1.683 1.683,1.683 h 130.155 c 0.928,0 1.683,-0.756 1.683,-1.683 v -62.799 c 0,-8.169 -1.962,-15.944 -5.656,-22.48 -3.316,-5.993 -8.005,-10.706 -13.177,-13.276 -3.325,-1.716 -6.716,-2.554 -10.345,-2.554 -3.612,0 -7.012,0.838 -10.377,2.546 -3.301,1.658 -6.527,4.293 -9.335,7.635 -6.068,7.331 -9.515,17.586 -9.458,28.128 0,8.168 -6.65,14.811 -14.819,14.811 -8.169,0 -14.811,-6.642 -14.811,-14.811 0,-13.202 3.251,-25.978 9.408,-36.954 6.224,-11.101 15.05,-19.82 25.526,-25.221 7.372,-3.769 15.64,-5.756 23.924,-5.756 8.21,0 16.444,1.986 23.809,5.756 7.11,3.686 13.374,8.784 18.613,15.131 10.476,12.733 16.272,29.441 16.329,47.044 z"
   id="path2" />
</g>
</svg>
