<?xml version="1.0" encoding="UTF-8" standalone="no"?>
<!-- Uploaded to: SVG Repo, www.svgrepo.com, Generator: SVG Repo Mixer Tools -->

<svg
   fill="#000000"
   height="800px"
   width="800px"
   version="1.1"
   id="Capa_1"
   viewBox="0 0 470 470"
   xml:space="preserve"
   sodipodi:docname="productor.svg"
   inkscape:version="1.4.2 (f4327f4, 2025-05-13)"
   xmlns:inkscape="http://www.inkscape.org/namespaces/inkscape"
   xmlns:sodipodi="http://sodipodi.sourceforge.net/DTD/sodipodi-0.dtd"
   xmlns="http://www.w3.org/2000/svg"
   xmlns:svg="http://www.w3.org/2000/svg"><defs
   id="defs5" /><sodipodi:namedview
   id="namedview5"
   pagecolor="#ffffff"
   bordercolor="#000000"
   borderopacity="0.25"
   inkscape:showpageshadow="2"
   inkscape:pageopacity="0.0"
   inkscape:pagecheckerboard="0"
   inkscape:deskcolor="#d1d1d1"
   inkscape:zoom="0.5671875"
   inkscape:cx="-307.6584"
   inkscape:cy="-506.88705"
   inkscape:window-width="3840"
   inkscape:window-height="2054"
   inkscape:window-x="3829"
   inkscape:window-y="-11"
   inkscape:window-maximized="1"
   inkscape:current-layer="Capa_1" />
<circle
   style="opacity:1;fill:#ffb380;fill-opacity:1;stroke:#000000;stroke-width:6.8520125;stroke-linecap:round;stroke-linejoin:round;stroke-dasharray:none"
   id="path6"
   cx="234.8582"
   cy="235.1418"
   r="231.9507" /><g
   id="g5"
   style="fill:#1a1a1a;fill-opacity:1"
   transform="matrix(0.61276236,0,0,0.61276236,76.696468,80.957576)">
	<path
   d="m 403.204,336.001 c -0.46,-0.485 -0.984,-0.907 -1.558,-1.256 -12.934,-10.356 -27.465,-18.792 -43.163,-24.872 -0.406,-0.199 -0.832,-0.363 -1.276,-0.486 -16.135,-6.094 -33.475,-9.705 -51.556,-10.369 -1.362,-1.89 -3.576,-3.125 -6.083,-3.125 -2.507,0 -4.722,1.235 -6.083,3.125 -18.082,0.665 -35.422,4.275 -51.556,10.369 -0.445,0.124 -0.872,0.288 -1.279,0.487 -15.697,6.081 -30.228,14.516 -43.161,24.871 -0.575,0.349 -1.099,0.771 -1.56,1.257 -36.586,30.029 -59.967,75.583 -59.967,126.498 0,4.143 3.357,7.5 7.5,7.5 4.143,0 7.5,-3.357 7.5,-7.5 0,-40.628 16.395,-77.495 42.908,-104.348 v 102.727 c 0,0.557 0.065,1.099 0.18,1.621 0.741,3.362 3.734,5.879 7.32,5.879 3.586,0 6.578,-2.517 7.32,-5.879 0.115,-0.522 0.18,-1.064 0.18,-1.621 V 344.867 c 8.509,-6.575 17.746,-12.249 27.57,-16.878 v 63.088 c 0,4.143 3.357,7.5 7.5,7.5 h 111.255 c 4.143,0 7.5,-3.357 7.5,-7.5 v -63.088 c 9.824,4.629 19.062,10.302 27.57,16.878 v 116.012 c 0,0.557 0.065,1.099 0.18,1.621 0.741,3.362 3.734,5.879 7.32,5.879 3.586,0 6.578,-2.517 7.32,-5.879 0.115,-0.522 0.18,-1.064 0.18,-1.621 V 358.151 c 26.514,26.853 42.908,63.72 42.908,104.349 0,4.143 3.357,7.5 7.5,7.5 4.143,0 7.5,-3.357 7.5,-7.5 -10e-4,-50.915 -23.383,-96.469 -59.969,-126.499 z m -151.766,47.576 v -61.68 c 12.845,-4.409 26.478,-7.108 40.628,-7.815 v 19.313 c 0,4.143 3.357,7.5 7.5,7.5 4.143,0 7.5,-3.357 7.5,-7.5 v -19.313 c 14.149,0.707 27.782,3.406 40.627,7.814 v 61.681 z"
   id="path1"
   style="fill:#1a1a1a;fill-opacity:1" />
	<path
   d="M 157.678,143.304 V 7.5 c 0,-4.143 -3.357,-7.5 -7.5,-7.5 -4.143,0 -7.5,3.357 -7.5,7.5 V 135.804 H 112.395 V 7.5 c 0,-4.143 -3.357,-7.5 -7.5,-7.5 -4.143,0 -7.5,3.357 -7.5,7.5 V 135.804 H 67.111 V 7.5 c 0,-4.143 -3.357,-7.5 -7.5,-7.5 -4.143,0 -7.5,3.357 -7.5,7.5 V 135.804 H 21.828 V 7.5 c 0,-4.143 -3.357,-7.5 -7.5,-7.5 -4.143,0 -7.5,3.357 -7.5,7.5 v 135.804 c 0,21.384 17.396,38.78 38.78,38.78 H 74.753 V 462.5 c 0,4.143 3.357,7.5 7.5,7.5 4.143,0 7.5,-3.357 7.5,-7.5 V 182.084 h 29.145 c 21.383,0 38.78,-17.396 38.78,-38.78 z m -134.631,7.5 h 118.412 c -3.149,9.447 -12.07,16.28 -22.561,16.28 h -73.29 c -10.491,0 -19.412,-6.833 -22.561,-16.28 z"
   id="path2"
   style="fill:#1a1a1a;fill-opacity:1" />
	<path
   d="m 180.893,182.084 h 33.527 c -0.265,2.752 -0.407,5.521 -0.407,8.291 0,47.175 38.379,85.554 85.554,85.554 47.174,0 85.553,-38.379 85.553,-85.554 0,-2.77 -0.143,-5.539 -0.408,-8.291 h 33.248 c 4.143,0 7.5,-3.357 7.5,-7.5 0,-4.143 -3.357,-7.5 -7.5,-7.5 H 381.932 L 364.523,94.739 c -1.72,-7.146 -6.124,-13.07 -12.4,-16.68 -6.278,-3.609 -13.61,-4.437 -20.655,-2.328 l -31.107,9.313 -31.106,-9.313 c -7.021,-2.104 -14.37,-1.294 -20.691,2.278 -6.322,3.571 -10.808,9.446 -12.631,16.545 l -18.632,72.529 h -36.405 c -4.143,0 -7.5,3.357 -7.5,7.5 0,4.143 3.354,7.501 7.497,7.501 z m 75.045,-91.015 c 2.734,-1.545 5.934,-1.89 9.011,-0.969 l 33.258,9.958 c 1.404,0.42 2.898,0.42 4.303,0 L 335.769,90.1 c 3.055,-0.914 6.207,-0.572 8.874,0.962 2.669,1.535 4.549,4.087 5.295,7.187 l 16.565,68.835 H 232.784 l 17.673,-68.797 c 0.799,-3.109 2.745,-5.672 5.481,-7.218 z m 114.181,99.306 c 0,38.903 -31.649,70.554 -70.553,70.554 -38.904,0 -70.554,-31.65 -70.554,-70.554 0,-2.776 0.181,-5.545 0.502,-8.291 h 140.103 c 0.321,2.747 0.502,5.517 0.502,8.291 z"
   id="path3"
   style="fill:#1a1a1a;fill-opacity:1" />
	<path
   d="m 355.19,413.58 h -61.25 c -4.143,0 -7.5,3.357 -7.5,7.5 0,4.143 3.357,7.5 7.5,7.5 h 61.25 c 4.143,0 7.5,-3.357 7.5,-7.5 0,-4.143 -3.357,-7.5 -7.5,-7.5 z"
   id="path4"
   style="fill:#1a1a1a;fill-opacity:1" />
	<path
   d="m 263.94,413.58 h -20 c -4.143,0 -7.5,3.357 -7.5,7.5 0,4.143 3.357,7.5 7.5,7.5 h 20 c 4.143,0 7.5,-3.357 7.5,-7.5 0,-4.143 -3.357,-7.5 -7.5,-7.5 z"
   id="path5"
   style="fill:#1a1a1a;fill-opacity:1" />
</g>
</svg>
