<?xml version="1.0" encoding="UTF-8" standalone="no"?>
<!-- Uploaded to: SVG Repo, www.svgrepo.com, Generator: SVG Repo Mixer Tools -->

<svg
   width="800px"
   height="800px"
   viewBox="0 0 512 512"
   version="1.1"
   id="svg1"
   sodipodi:docname="restos_arqueologicos.svg"
   inkscape:version="1.4.2 (f4327f4, 2025-05-13)"
   xmlns:inkscape="http://www.inkscape.org/namespaces/inkscape"
   xmlns:sodipodi="http://sodipodi.sourceforge.net/DTD/sodipodi-0.dtd"
   xmlns="http://www.w3.org/2000/svg"
   xmlns:svg="http://www.w3.org/2000/svg">
  <defs
     id="defs1" />
  <sodipodi:namedview
     id="namedview1"
     pagecolor="#ffffff"
     bordercolor="#000000"
     borderopacity="0.25"
     inkscape:showpageshadow="2"
     inkscape:pageopacity="0.0"
     inkscape:pagecheckerboard="0"
     inkscape:deskcolor="#d1d1d1"
     inkscape:zoom="0.80212426"
     inkscape:cx="476.85879"
     inkscape:cy="392.08389"
     inkscape:window-width="3840"
     inkscape:window-height="2054"
     inkscape:window-x="3829"
     inkscape:window-y="-11"
     inkscape:window-maximized="1"
     inkscape:current-layer="svg1" />
  <circle
     style="opacity:1;fill:#d7b89c;stroke:#000000;stroke-width:6.4;stroke-linecap:round;stroke-linejoin:round;fill-opacity:1"
     id="path2"
     cx="256"
     cy="256"
     r="256" />
  <path
     fill="#000000"
     d="m 276.09671,96.36921 -22.1644,3.73403 13.51989,13.51989 27.90091,-3.64328 99.60598,87.95874 5.89019,34.96225 -124.53795,-38.08024 -5.4053,8.04503 148.39017,45.37541 V 204.93766 L 305.15883,96.36921 Z m -36.59311,6.16509 -119.10549,20.06455 -9.57653,31.31632 129.40007,39.56735 c 2.09456,-1.73089 4.27457,-3.52736 8.59351,-7.06995 l -109.66475,-33.53276 22.98248,-24.16091 1.454,-1.53018 88.95435,-11.61611 -13.03764,-13.03632 z m 52.01942,19.96916 -13.43509,1.7554 15.78667,15.78534 -21.52318,7.17594 30.76916,7.69064 -19.86118,29.56621 102.62659,31.38058 -1.98393,-11.77641 -92.38036,-81.5777 z m -28.34737,3.7029 -93.85755,12.25931 -8.23182,8.65312 98.83492,30.22267 c 6.87587,-5.5868 13.9955,-11.33193 19.91882,-15.95956 l -50.10505,-12.52626 42.06731,-14.02332 -8.62729,-8.62596 z m -72.98883,67.27153 -17.61692,17.61692 -7.86088,-15.72176 -9.9031,29.70467 -18.03755,-27.05699 -9.30958,167.59357 c 22.797,3.79829 46.78106,4.01424 72.28932,-0.0497 z m -3.40084,28.57259 3.97449,133.80778 -11.91817,0.35505 -3.97449,-133.80777 z m -46.36373,0.003 11.91816,0.34976 -3.97448,135.1326 -11.91817,-0.34975 z m 17.22013,0.17488 h 11.92347 V 360.01028 H 157.64238 Z M 362.99095,259.986 v 28.30498 c 10.1323,2.71789 33.58443,2.8974 56.30525,2.64304 V 259.986 Z m -14.06704,42.39454 c -2.05348,1.68121 -4.28582,3.23921 -6.75795,4.519 -4.22356,2.18729 -9.36257,3.43131 -14.81822,2.56685 -3.16833,-0.50211 -6.36183,-1.74612 -9.58316,-3.58233 l -8.98896,26.96756 h 74.08777 v -30.47108 z m 45.86295,0 v 30.47108 h 24.50934 v -30.47108 z m -122.9826,11.51078 c -5.69146,2.78877 -11.08882,5.34304 -15.24084,8.63326 -3.37169,2.67284 -6.08096,5.79612 -8.02184,10.32704 h 51.70147 z m -22.67975,30.88377 c 4.28251,12.11887 5.71001,21.99879 5.59541,30.47108 h 0.95984 v -30.47108 z m 18.47872,0 v 30.47108 h 72.86562 v -30.47108 z m 123.6927,0 -30.47306,30.47108 H 419.2962 V 344.77509 Z M 221.2342,377.36788 c -24.33248,3.12527 -48.95576,4.33352 -73.88243,3.43528 l -2.26149,2.94775 23.80322,4.48057 -22.77382,19.71346 c 25.36518,0.90486 50.40314,-0.053 75.11518,-2.92787 v -27.64919 z m -115.26017,0.009 v 27.61607 c 7.68203,0.85584 15.33358,1.53879 22.95665,2.0621 l 13.48676,-11.6744 -18.59199,-3.49953 9.07773,-11.83537 c -8.9373,-0.61604 -17.91302,-1.49308 -26.92981,-2.66953 z m 147.55156,9.79248 c -1.36126,7.34485 -3.62341,13.68284 -5.4318,19.87244 h 49.98052 v -19.87252 z m 56.47218,0 v 19.87244 h 72.86562 v -19.87252 z m 84.78909,0 v 19.87244 h 24.50934 v -19.87252 z"
     id="path1"
     style="stroke-width:0.662415" />
</svg>
