<?xml version="1.0" encoding="UTF-8" standalone="no"?>
<!-- Uploaded to: SVG Repo, www.svgrepo.com, Generator: SVG Repo Mixer Tools -->

<svg
   width="800px"
   height="800px"
   viewBox="0 0 45 45"
   fill="none"
   version="1.1"
   id="svg5"
   sodipodi:docname="ski.svg"
   inkscape:version="1.4.2 (f4327f4, 2025-05-13)"
   xmlns:inkscape="http://www.inkscape.org/namespaces/inkscape"
   xmlns:sodipodi="http://sodipodi.sourceforge.net/DTD/sodipodi-0.dtd"
   xmlns="http://www.w3.org/2000/svg"
   xmlns:svg="http://www.w3.org/2000/svg">
  <defs
     id="defs5" />
  <sodipodi:namedview
     id="namedview5"
     pagecolor="#ffffff"
     bordercolor="#000000"
     borderopacity="0.25"
     inkscape:showpageshadow="2"
     inkscape:pageopacity="0.0"
     inkscape:pagecheckerboard="0"
     inkscape:deskcolor="#d1d1d1"
     inkscape:zoom="1.134375"
     inkscape:cx="166.1708"
     inkscape:cy="379.50413"
     inkscape:window-width="3840"
     inkscape:window-height="2054"
     inkscape:window-x="3829"
     inkscape:window-y="-11"
     inkscape:window-maximized="1"
     inkscape:current-layer="svg5" />
  <circle
     style="opacity:1;fill:#d5f6ff;stroke:#000000;stroke-width:1.09756;stroke-linecap:round;stroke-linejoin:round;stroke-dasharray:none"
     id="path6"
     cx="22.5"
     cy="22.5"
     r="21.95122" />
  <path
     d="m 25.001231,33.533826 5.123,1.865 c 1.657,0.603 3.474,-0.123 4.282,-1.634 l 0.946,0.345 c -0.973,1.968 -3.253,2.961 -5.375,2.295 l -0.2,-0.068 -6.756,-2.458 -0.009,-0.004 -0.009,-0.004 -16.2430204,-5.912 0.342,-0.94 z"
     fill="#3c3c3c"
     id="path1" />
  <path
     d="m 25.001231,33.533826 5.123,1.865 c 1.657,0.603 3.474,-0.123 4.282,-1.634 l 0.946,0.345 c -0.973,1.968 -3.253,2.961 -5.375,2.295 l -0.2,-0.068 -6.756,-2.458 -0.009,-0.004 -0.009,-0.004 -16.2430204,-5.912 0.342,-0.94 z"
     stroke="#3c3c3c"
     id="path2" />
  <path
     d="m 23.624231,32.633826 4.405,-5.952 c 0.422,-0.569 0.383,-1.347 -0.068,-1.871 l -0.011,-0.013 -0.011,-0.011 -0.089,-0.09 -0.011,-0.011 -0.011,-0.011 -2.669,-2.403 c -0.165,-0.15 -0.21,-0.387 -0.118,-0.584 l 0.045,-0.077 2.774,-4.164 1.198,0.799 v 0.011 l 0.004,0.032 0.032,0.246 10e-4,0.013 c 0.013,0.079 0.026,0.154 0.041,0.22 0.232,1.006 0.766,1.796 1.642,2.329 0.816,0.495 1.891,0.745 3.216,0.794 v 1 c -2.963,-0.107 -4.802,-1.184 -5.573,-3.074 l -0.356,-0.872 -0.523,0.784 -1.152,1.729 -0.24,0.359 0.321,0.291 2.026,1.824 c 0.915,0.824 1.088,2.185 0.432,3.207 l -0.1,0.144 -4.451,5.912 m -5.016,-2.086 3.223,-4.216 0.29,-0.379 -0.365,-0.306 -3.001,-2.533 c -0.483,-0.408 -0.754,-0.986 -0.784,-1.584 l 1.118,0.42 c 0.047,0.095 0.106,0.186 0.177,0.268 l 0.013,0.015 0.014,0.013 0.079,0.077 0.014,0.015 0.014,0.011 3.73,3.149 c 0.185,0.155 0.229,0.417 0.115,0.623 l -0.049,0.073 -3.875,4.905 m -3.64,-15.067 0.383,0.143 0.216,-0.345 0.877,-1.401 c 0.161,-0.257 0.339,-0.503 0.534,-0.735 1.899,-2.262 5.012,-2.905 7.587,-1.776 l 0.833,0.366 -0.137,-0.898 c -0.119,-0.777 0.023,-1.597 0.459,-2.3240096 0.996,-1.657 3.146,-2.193 4.803,-1.198 1.657,0.996 2.193,3.1450096 1.198,4.8020096 -0.46,0.764 -1.163,1.289 -1.952,1.537 l -0.161,0.051 -0.097,0.138 -0.465,0.657 -0.844,-0.562 0.759,-1.134 c 0.76,-0.074 1.478,-0.496 1.902,-1.202 0.711,-1.183 0.329,-2.7179996 -0.855,-3.4290096 -1.183,-0.712 -2.719,-0.329 -3.43,0.8550096 -0.422,0.701 -0.459,1.526 -0.174,2.229 l -1.048,1.744 c -2.324,-1.829 -5.697,-1.493 -7.612,0.788 -0.11,0.131 -0.214,0.266 -0.311,0.406 l -0.007,0.01 -0.128,0.196 -0.006,0.009 -0.661,1.058 -0.325,0.517 0.573,0.216"
     fill="#3c3c3c"
     id="path3" />
  <path
     d="m 23.624231,32.633826 4.405,-5.952 c 0.422,-0.569 0.383,-1.347 -0.068,-1.871 l -0.011,-0.013 -0.011,-0.011 -0.089,-0.09 -0.011,-0.011 -0.011,-0.011 -2.669,-2.403 c -0.165,-0.15 -0.21,-0.387 -0.118,-0.584 l 0.045,-0.077 2.774,-4.164 1.198,0.799 v 0.011 l 0.004,0.032 0.032,0.246 10e-4,0.013 c 0.013,0.079 0.026,0.154 0.041,0.22 0.232,1.006 0.766,1.796 1.642,2.329 0.816,0.495 1.891,0.745 3.216,0.794 v 1 c -2.963,-0.107 -4.802,-1.184 -5.573,-3.074 l -0.356,-0.872 -0.523,0.784 -1.152,1.729 -0.24,0.359 0.321,0.291 2.026,1.824 c 0.915,0.824 1.088,2.185 0.432,3.207 l -0.1,0.144 -4.451,5.912 m -5.016,-2.086 3.223,-4.216 0.29,-0.379 -0.365,-0.306 -3.001,-2.533 c -0.483,-0.408 -0.754,-0.986 -0.784,-1.584 l 1.118,0.42 c 0.047,0.095 0.106,0.186 0.177,0.268 l 0.013,0.015 0.014,0.013 0.079,0.077 0.014,0.015 0.014,0.011 3.73,3.149 c 0.185,0.155 0.229,0.417 0.115,0.623 l -0.049,0.073 -3.875,4.905 m -3.64,-15.067 0.383,0.143 0.216,-0.345 0.877,-1.401 c 0.161,-0.257 0.339,-0.503 0.534,-0.735 1.899,-2.262 5.012,-2.905 7.587,-1.776 l 0.833,0.366 -0.137,-0.898 c -0.119,-0.777 0.023,-1.597 0.459,-2.3240096 0.996,-1.657 3.146,-2.193 4.803,-1.198 1.657,0.996 2.193,3.1450096 1.198,4.8020096 -0.46,0.764 -1.163,1.289 -1.952,1.537 l -0.161,0.051 -0.097,0.138 -0.465,0.657 -0.844,-0.562 0.759,-1.134 c 0.76,-0.074 1.478,-0.496 1.902,-1.202 0.711,-1.183 0.329,-2.7179996 -0.855,-3.4290096 -1.183,-0.712 -2.719,-0.329 -3.43,0.8550096 -0.422,0.701 -0.459,1.526 -0.174,2.229 l -1.048,1.744 c -2.324,-1.829 -5.697,-1.493 -7.612,0.788 -0.11,0.131 -0.214,0.266 -0.311,0.406 l -0.007,0.01 -0.128,0.196 -0.006,0.009 -0.661,1.058 -0.325,0.517 0.573,0.216"
     stroke="#3c3c3c"
     id="path4" />
  <path
     d="m 7.3681806,13.961826 16.0059504,6.004"
     stroke="#3c3c3c"
     stroke-width="2"
     id="path5" />
</svg>
