<?xml version="1.0" encoding="UTF-8" standalone="no"?>
<!-- Uploaded to: SVG Repo, www.svgrepo.com, Generator: SVG Repo Mixer Tools -->

<svg
   fill="#000000"
   width="800px"
   height="800px"
   viewBox="-6 0 32 32"
   version="1.1"
   id="svg1"
   sodipodi:docname="spa.svg"
   inkscape:version="1.4.2 (f4327f4, 2025-05-13)"
   xmlns:inkscape="http://www.inkscape.org/namespaces/inkscape"
   xmlns:sodipodi="http://sodipodi.sourceforge.net/DTD/sodipodi-0.dtd"
   xmlns="http://www.w3.org/2000/svg"
   xmlns:svg="http://www.w3.org/2000/svg">
  <defs
     id="defs1" />
  <sodipodi:namedview
     id="namedview1"
     pagecolor="#ffffff"
     bordercolor="#000000"
     borderopacity="0.25"
     inkscape:showpageshadow="2"
     inkscape:pageopacity="0.0"
     inkscape:pagecheckerboard="0"
     inkscape:deskcolor="#d1d1d1"
     inkscape:zoom="1.6042485"
     inkscape:cx="393.01891"
     inkscape:cy="352.18982"
     inkscape:window-width="3840"
     inkscape:window-height="2054"
     inkscape:window-x="3829"
     inkscape:window-y="-11"
     inkscape:window-maximized="1"
     inkscape:current-layer="svg1" />
  <title
     id="title1">spa</title>
  <circle
     style="opacity:1;fill:#a7e6e3;stroke:#000000;stroke-width:0.4;stroke-linecap:round;stroke-linejoin:round;fill-opacity:1"
     id="path2"
     cx="10"
     cy="16"
     r="16" />
  <path
     d="M16.5 16.063l-0.438 0.594c1.438 0.5 2.406 1.438 2.406 2.813 0 2.531-3.656 4.438-8.469 4.438s-8.469-1.906-8.469-4.438c0-1.375 0.969-2.313 2.406-2.813l-0.438-0.594c-2.094 0.5-3.5 1.938-3.5 3.938 0 3.219 4.188 5.844 10 5.844 5.75 0 10-2.594 10-5.844 0-2-1.406-3.438-3.5-3.938zM4.625 20.531l0.625 0.406c1.781-1.125 2.219-2.406 2.219-4 0-0.813-0.344-1.969-0.969-3.094-0.656-1.125-1.063-2.281-1.063-3.156 0-0.906 0.406-1.875 1.469-2.75l-0.625-0.406c-1.813 1.156-2.219 2.563-2.219 3.969 0 0.844 0.344 2 1 3.094 0.625 1.125 1.063 2.281 1.063 3.156s-0.406 1.906-1.5 2.781zM8.594 21.5l0.656 0.344c1.813-1.219 2.375-2.75 2.375-4.531 0-0.938-0.375-2.219-1.031-3.5s-1.031-2.531-1.031-3.563c0-1.063 0.5-2.281 1.625-3.281l-0.688-0.375c-1.906 1.313-2.375 2.938-2.375 4.563 0 0.938 0.375 2.25 1.031 3.5 0.656 1.281 1.063 2.5 1.063 3.563s-0.531 2.25-1.625 3.281zM12.938 20.531l0.625 0.406c1.781-1.125 2.188-2.406 2.188-4 0-0.813-0.313-1.969-0.969-3.094-0.625-1.125-1.063-2.281-1.063-3.156 0-0.906 0.438-1.906 1.5-2.781l-0.625-0.375c-1.844 1.156-2.219 2.563-2.219 3.969 0 0.844 0.313 2 0.969 3.094 0.656 1.125 1.063 2.281 1.063 3.156s-0.406 1.906-1.469 2.781z"
     id="path1" />
</svg>
