<?xml version="1.0" encoding="UTF-8" standalone="no"?>
<!-- Uploaded to: SVG Repo, www.svgrepo.com, Generator: SVG Repo Mixer Tools -->

<svg
   fill="#000000"
   height="800px"
   width="800px"
   version="1.1"
   id="Layer_1"
   viewBox="0 0 512 512"
   xml:space="preserve"
   sodipodi:docname="via_ferrata.svg"
   inkscape:version="1.4.2 (f4327f4, 2025-05-13)"
   xmlns:inkscape="http://www.inkscape.org/namespaces/inkscape"
   xmlns:sodipodi="http://sodipodi.sourceforge.net/DTD/sodipodi-0.dtd"
   xmlns="http://www.w3.org/2000/svg"
   xmlns:svg="http://www.w3.org/2000/svg"><defs
   id="defs4" /><sodipodi:namedview
   id="namedview4"
   pagecolor="#ffffff"
   bordercolor="#000000"
   borderopacity="0.25"
   inkscape:showpageshadow="2"
   inkscape:pageopacity="0.0"
   inkscape:pagecheckerboard="0"
   inkscape:deskcolor="#d1d1d1"
   inkscape:zoom="0.80212426"
   inkscape:cx="121.55224"
   inkscape:cy="665.10892"
   inkscape:window-width="3840"
   inkscape:window-height="2054"
   inkscape:window-x="3829"
   inkscape:window-y="-11"
   inkscape:window-maximized="1"
   inkscape:current-layer="Layer_1" />
<circle
   style="fill:#ffe6d5;stroke:#000000;stroke-width:7.35707;stroke-linecap:round;stroke-linejoin:round"
   id="path2-0"
   cx="256"
   cy="255.99998"
   r="252.32146" /><g
   id="g2"
   transform="matrix(0.69584416,0,0,0.69584416,75.47022,81.525132)">
	<g
   id="g1">
		<path
   d="m 436.967,72.777 c -0.266,-2.664 -1.905,-4.995 -4.323,-6.147 L 294.28,0.743 c -2.728,-1.299 -5.971,-0.871 -8.268,1.099 L 261.381,22.954 209.911,9.475 c -3.209,-0.845 -6.584,0.479 -8.375,3.265 L 77.43,205.904 c -4.222,6.57 -2.844,14.861 3.276,19.714 2.789,2.21 6.048,3.299 9.285,3.299 3.679,0 7.33,-1.408 10.223,-4.177 L 242.517,113.414 c -0.007,0.35 -0.026,0.696 -0.026,1.047 0,27.18 21.334,49.465 48.135,51.007 l 40.453,108.063 -5.876,28.024 c -0.002,0.012 -0.005,0.023 -0.007,0.036 l -9.07,43.252 c -0.003,0.015 -0.006,0.031 -0.01,0.047 L 303.4,405.527 291.044,393.649 c -6.492,-6.24 -15.364,-9.45 -24.348,-8.799 -8.983,0.648 -17.305,5.096 -22.835,12.206 -10.438,13.42 -8.512,32.61 4.386,43.688 l 80.817,69.41 c 1.409,1.21 3.183,1.847 4.986,1.847 0.824,0 1.654,-0.134 2.458,-0.406 2.561,-0.869 4.473,-3.027 5.029,-5.675 L 377.03,336.662 c 0.002,-0.011 0.005,-0.022 0.007,-0.034 l 10.84,-51.695 3.009,-14.351 c 0.466,-2.231 -0.091,-4.438 -1.353,-6.134 L 340.748,134.127 c 2.536,-6.057 3.942,-12.701 3.942,-19.667 0,-0.731 -0.024,-1.457 -0.055,-2.18 l 30.001,8.171 c 2.276,0.62 4.713,0.155 6.601,-1.261 l 52.71,-39.533 c 2.14,-1.607 3.287,-4.216 3.02,-6.88 z m -179.176,41.684 c 0,-19.74 16.059,-35.8 35.799,-35.8 19.74,0 35.8,16.06 35.8,35.8 0,19.74 -16.06,35.799 -35.8,35.799 -19.74,0 -35.799,-16.06 -35.799,-35.799 z m 71.424,375.654 -71,-60.979 c -6.698,-5.753 -7.698,-15.718 -2.278,-22.687 2.913,-3.746 7.125,-5.997 11.859,-6.339 4.728,-0.342 9.222,1.281 12.643,4.569 l 22.312,21.445 c 2.006,1.928 4.899,2.614 7.557,1.795 2.657,-0.819 4.661,-3.018 5.232,-5.741 l 4.13,-19.695 22.824,19.687 c 0.267,0.232 0.55,0.432 0.838,0.62 z m 17.688,-84.345 -23.644,-20.395 5.162,-24.616 23.568,20.33 c 0.024,0.021 0.051,0.039 0.077,0.06 z m 8.75,-41.727 -23.643,-20.395 5.491,-26.182 23.643,20.394 z m 19.684,-93.872 -10.607,50.58 -23.643,-20.394 5.423,-25.858 c 0.297,-1.42 0.186,-2.894 -0.322,-4.252 L 306.391,163.936 c 9.253,-2.395 17.487,-7.333 23.933,-14.007 z m -0.29,-165.466 -34.046,-9.272 C 333.437,76.655 315.043,63.361 293.59,63.361 c -18.662,0 -35.011,10.061 -43.93,25.038 L 91.733,211.949 211.408,25.682 261.379,38.769 c 2.427,0.638 5.012,0.042 6.917,-1.592 l 23.897,-20.482 122.453,58.31 z"
   id="path1" />
	</g>
</g>
<g
   id="g4"
   transform="matrix(0.69584416,0,0,0.69584416,75.47022,81.525132)">
	<g
   id="g3">
		<path
   d="m 293.589,91.376 c -12.729,0 -23.084,10.356 -23.084,23.085 0,12.729 10.354,23.084 23.084,23.084 12.729,0 23.085,-10.356 23.085,-23.084 0,-12.729 -10.356,-23.085 -23.085,-23.085 z m 10e-4,30.868 c -4.292,0 -7.783,-3.492 -7.783,-7.783 0,-4.292 3.492,-7.784 7.783,-7.784 4.292,0 7.784,3.492 7.784,7.784 0,4.291 -3.492,7.783 -7.784,7.783 z"
   id="path2" />
	</g>
</g>
</svg>
