<?xml version="1.0" encoding="UTF-8" standalone="no"?>
<!-- Uploaded to: SVG Repo, www.svgrepo.com, Generator: SVG Repo Mixer Tools -->

<svg
   width="800px"
   height="800px"
   viewBox="0 -31.5 1087 1087"
   fill="#000000"
   class="icon"
   version="1.1"
   id="svg1"
   sodipodi:docname="zona_bano.svg"
   inkscape:version="1.4.2 (f4327f4, 2025-05-13)"
   xmlns:inkscape="http://www.inkscape.org/namespaces/inkscape"
   xmlns:sodipodi="http://sodipodi.sourceforge.net/DTD/sodipodi-0.dtd"
   xmlns="http://www.w3.org/2000/svg"
   xmlns:svg="http://www.w3.org/2000/svg">
  <defs
     id="defs1" />
  <sodipodi:namedview
     id="namedview1"
     pagecolor="#ffffff"
     bordercolor="#000000"
     borderopacity="0.25"
     inkscape:showpageshadow="2"
     inkscape:pageopacity="0.0"
     inkscape:pagecheckerboard="0"
     inkscape:deskcolor="#d1d1d1"
     inkscape:zoom="0.5671875"
     inkscape:cx="-277.68595"
     inkscape:cy="625.01377"
     inkscape:window-width="3840"
     inkscape:window-height="2054"
     inkscape:window-x="3829"
     inkscape:window-y="-11"
     inkscape:window-maximized="1"
     inkscape:current-layer="svg1" />
  <circle
     style="opacity:1;fill:#afe9dd;stroke:#000000;stroke-width:15.6194;stroke-linecap:round;stroke-linejoin:round"
     id="path2"
     cx="543.5"
     cy="512"
     r="535.69031" />
  <path
     d="m 619.5075,803.60551 c -91.10915,0 -174.73433,-31.56281 -223.78684,-84.52 -30.58664,-33.02707 -45.22918,-71.34172 -42.21933,-110.87658 3.00986,-39.53486 25.38041,-68.25051 54.25875,-101.03354 20.01148,-22.61459 24.40424,-37.82656 22.12651,-44.49705 -3.00985,-8.13475 -19.198,-14.72389 -28.14622,-16.26949 C 338.85879,445.92076 284.356,425.7466 255.31496,392.1501 a 78.825681,78.825681 0 0 1 -19.93012,-64.58988 c 9.11091,-58.65151 86.63503,-102.90453 180.26595,-102.90453 95.5019,0 168.22653,45.71727 169.2027,106.23978 a 84.194613,84.194613 0 0 1 -22.4519,58.8142 c -17.6524,19.3607 -20.41821,32.53899 -18.95396,35.54884 0,0 6.58915,14.07311 64.1018,15.70006 138.77875,3.98602 249.89937,73.70079 264.13517,165.70476 a 137.39585,137.39585 0 0 1 -34.57266,112.66622 c -45.22919,52.6318 -126.65799,84.27596 -217.60444,84.27596 z M 416.13887,273.13878 c -72.23654,0 -127.5528,32.53898 -132.02691,61.58002 a 30.749337,30.749337 0 0 0 8.70418,25.3804 c 19.11665,22.61459 62.80023,37.25713 110.71388,37.25713 h 3.82333 c 5.53162,0.89483 54.09605,9.599 68.08781,48.80848 9.7617,27.17005 -0.81347,58.57016 -31.48146,93.30552 -24.40424,27.49544 -40.67373,47.42557 -42.21933,72.39924 a 99.325239,99.325239 0 0 0 29.36643,73.94483 c 40.02295,43.11415 110.30715,68.90129 187.99396,68.90129 77.68682,0 144.55443,-25.29906 180.83539,-67.59973 a 91.027799,91.027799 0 0 0 23.42807,-73.21271 C 812.87039,546.22217 719.48352,492.7769 606.00382,489.523 c -60.19711,-1.7083 -95.42056,-16.26949 -107.62267,-45.47323 -10.65652,-25.05501 -0.89483,-55.96705 27.41409,-86.96042 a 35.630184,35.630184 0 0 0 10.08708,-25.62445 c -0.0813,-27.65814 -49.62195,-58.32612 -119.98749,-58.32612 z m 329.78257,7.40261 -39.12812,-92.81744 -34.57267,92.81744 h 24.72963 v 29.20374 h 24.32288 v -29.20374 z m 92.24801,134.2233 -53.85201,-127.63415 -47.50691,127.63415 h 33.92188 v 40.18564 h 33.43381 v -40.18564 z m -517.61383,179.28978 -53.77067,-127.5528 -47.58826,127.5528 h 34.00324 v 40.26699 h 33.35245 v -40.26699 z m 42.05663,162.61356 -43.68358,-103.55531 -38.55869,103.55531 h 27.57678 v 32.53898 h 27.0887 v -32.53898 z m 309.6084,-376.96409 -35.71153,-84.76405 -31.64416,84.76405 h 22.61459 v 26.76331 h 22.12651 V 379.70394 Z M 639.43763,729.0099 a 20.336865,20.336865 0 1 1 0,-40.67373 c 61.66137,0 115.75742,-29.93586 115.75742,-64.02044 a 39.372167,39.372167 0 0 0 -9.599,-24.40424 20.346013,20.346013 0 1 1 31.80686,-25.3804 80.045893,80.045893 0 0 1 18.46587,50.02868 c -0.0814,58.40747 -68.7386,104.45013 -156.43115,104.45013 z"
     id="path1"
     style="stroke-width:0.601447" />
</svg>
