<?xml version="1.0" encoding="UTF-8" standalone="no"?>
<!-- Uploaded to: SVG Repo, www.svgrepo.com, Generator: SVG Repo Mixer Tools -->

<svg
   height="800px"
   width="800px"
   version="1.1"
   id="Layer_1"
   viewBox="0 0 512.001 512.001"
   xml:space="preserve"
   sodipodi:docname="zoologico.svg"
   inkscape:version="1.4.2 (f4327f4, 2025-05-13)"
   xmlns:inkscape="http://www.inkscape.org/namespaces/inkscape"
   xmlns:sodipodi="http://sodipodi.sourceforge.net/DTD/sodipodi-0.dtd"
   xmlns="http://www.w3.org/2000/svg"
   xmlns:svg="http://www.w3.org/2000/svg"><defs
   id="defs7" /><sodipodi:namedview
   id="namedview7"
   pagecolor="#ffffff"
   bordercolor="#000000"
   borderopacity="0.25"
   inkscape:showpageshadow="2"
   inkscape:pageopacity="0.0"
   inkscape:pagecheckerboard="0"
   inkscape:deskcolor="#d1d1d1"
   inkscape:zoom="0.5671875"
   inkscape:cx="485.73003"
   inkscape:cy="205.39945"
   inkscape:window-width="3840"
   inkscape:window-height="2054"
   inkscape:window-x="3829"
   inkscape:window-y="-11"
   inkscape:window-maximized="1"
   inkscape:current-layer="Layer_1" />
<circle
   style="fill:#e5ffd5;stroke:#000000;stroke-width:6.62188;stroke-linecap:round;stroke-linejoin:round"
   id="path2-0"
   cx="256.00049"
   cy="256.00052"
   r="252.68954" /><g
   id="g4"
   transform="matrix(0.69200795,0,0,0.69200795,74.535947,77.838209)">
	<path
   style="fill:#a86439"
   d="m 186.591,387.438 -0.447,-0.21 c -4.311,-2.026 -8.583,-4.085 -11.428,-5.507 l -1.154,-0.577 -0.065,-1.288 c -1.138,-22.331 -10.241,-34.299 -17.554,-43.913 -3.374,-4.444 -6.561,-8.64 -8.499,-13.306 l -0.718,-1.728 1.586,-0.993 c 26.011,-16.307 51.003,-17.612 80.971,-17.624 l 2.603,-10e-4 -0.42,2.57 c -2.436,14.891 -10.49,29.987 -18.278,44.585 -6.831,12.785 -13.281,24.859 -15.528,36.213 l -0.353,1.781 h -10.716 z"
   id="path1" />
	<path
   style="fill:#a86439"
   d="m 229.284,304.5 c -2.366,14.464 -10.306,29.393 -18.047,43.902 -6.888,12.894 -13.446,25.202 -15.746,36.824 h -8.405 c -4.09,-1.923 -8.438,-4.014 -11.379,-5.485 -1.171,-22.99 -10.449,-35.21 -18.002,-45.139 -3.418,-4.501 -6.403,-8.45 -8.217,-12.817 25.189,-15.791 49.12,-17.273 79.796,-17.285 z"
   id="path2" />
	<path
   style="fill:#a86439"
   d="M 426.114,387.438 392.35,362.114 c -0.618,-0.463 -1.312,-0.802 -2.061,-1.005 -36.492,-9.857 -48.267,-55.504 -48.752,-57.443 -0.073,-0.317 -0.173,-0.618 -0.303,-0.931 l -0.634,-1.514 1.264,-1.045 c 14.954,-12.358 26.11,-26.522 33.155,-42.101 l 0.42,-0.929 0.98,-0.284 c 4.051,-1.174 10,-3.259 15.339,-6.529 l 2.354,-1.443 0.895,2.612 c 3.748,10.944 5.506,35.192 5.306,53.487 -0.017,1.432 0.481,2.833 1.397,3.943 13.247,16.042 22.402,34.175 30.48,50.173 4.674,9.249 9.089,17.987 13.719,24.889 l 2.311,3.444 z"
   id="path3" />
	<path
   style="fill:#a86439"
   d="m 444.07,385.226 h -17.218 l -33.175,-24.881 c -0.84,-0.629 -1.791,-1.094 -2.809,-1.37 -35.575,-9.61 -47.075,-55.403 -47.186,-55.845 -0.1,-0.432 -0.243,-0.853 -0.409,-1.25 12.219,-10.097 25.335,-24.263 33.761,-42.895 4.202,-1.218 10.34,-3.374 15.879,-6.768 3.494,10.206 5.398,33.496 5.186,52.747 -0.022,1.958 0.652,3.859 1.902,5.374 13.049,15.802 22.172,33.84 30.211,49.763 4.801,9.5 9.191,18.169 13.858,25.125 z"
   id="path4" />
</g>
<g
   id="g6"
   transform="matrix(0.69200795,0,0,0.69200795,74.535947,77.838209)">
	<path
   style="fill:#c97743"
   d="m 271.106,387.438 c -2.403,0 -4.668,-0.934 -6.38,-2.632 -1.707,-1.707 -2.645,-3.971 -2.645,-6.381 v -20.293 c 0,-1.157 -0.326,-2.278 -0.944,-3.241 -36.114,-56.99 -2.048,-97.203 -0.579,-98.888 2.214,-2.512 1.976,-6.359 -0.522,-8.582 -1.109,-0.981 -2.542,-1.524 -4.031,-1.524 -1.742,0 -3.403,0.746 -4.556,2.047 -0.441,0.497 -10.829,12.338 -16.058,32.356 -0.697,2.682 -1.277,5.453 -1.726,8.231 l -0.386,2.384 -2.341,-0.594 c -0.526,-0.133 -1.01,-0.198 -1.481,-0.198 -41.044,0 -72.981,2.654 -110.28,37.003 -21.945,20.2 -56.756,33.77 -75.5,33.77 -3.354,0 -6.082,2.728 -6.082,6.082 v 20.458 h -7.49 L 15.426,350.754 30.281,335.899 c 0.7,-0.7 1.225,-1.574 1.518,-2.527 12.729,-41.576 52.956,-153.799 85.783,-173.49 12.98,-7.791 50.608,-18.657 82.399,-18.657 7.231,0 13.771,0.574 19.438,1.709 8.452,1.691 16.434,2.549 23.723,2.549 19.303,0 31.443,-5.725 43.185,-11.261 10.125,-4.768 18.841,-8.87 31.596,-8.87 9.88,0 17.031,4.753 23.948,9.349 6.216,4.119 12.592,8.345 20.285,8.345 9.647,0 16.48,-2.529 22.509,-4.762 3.007,-1.107 6.112,-2.25 9.542,-3.034 l 2.352,-0.536 0.332,2.39 c 0.92,6.636 4.231,11.762 4.371,11.977 1.138,1.781 3.066,2.834 5.171,2.834 1.159,0 2.282,-0.33 3.246,-0.951 2.83,-1.816 3.661,-5.575 1.861,-8.382 -1.151,-1.864 -3.758,-7.508 -2.274,-11.574 0.942,-2.56 3.586,-4.563 7.861,-5.955 0.996,-0.325 1.881,-0.484 2.705,-0.484 1.862,0 3.006,0.834 3.703,1.46 2.769,2.472 3.946,7.281 3.508,9.376 -0.828,3.335 1.159,6.647 4.411,7.464 0.481,0.118 0.978,0.18 1.471,0.18 2.012,0 3.888,-0.994 5.018,-2.661 l 1.074,-1.581 1.72,0.832 c 31.39,15.179 32.552,29.079 33.322,38.276 0.122,1.391 0.23,2.615 0.405,3.815 0.288,1.915 1.166,7.753 20.402,19.139 l 1.522,0.9 -4.918,15.216 -1.209,0.29 c -3.954,0.945 -10.972,2.072 -21.945,2.072 -6.883,0 -19.693,0 -28.633,8.259 l -0.636,0.587 h -32.989 c -7.168,0 -13.396,-5.105 -14.809,-12.138 l -3.67,-18.359 c -0.566,-2.832 -3.069,-4.887 -5.953,-4.887 -0.399,0 -0.804,0.04 -1.201,0.118 -1.595,0.318 -2.97,1.24 -3.87,2.593 -0.899,1.35 -1.216,2.968 -0.897,4.554 l 3.673,18.372 c 1.225,6.133 4.584,11.712 9.453,15.709 l 2.036,1.672 -1.999,1.716 c -3.875,3.327 -11.743,6.817 -19.133,8.486 -1.958,0.438 -3.576,1.811 -4.332,3.671 -15.739,39.108 -56.917,57.825 -58.662,58.603 -2.031,0.877 -3.424,2.758 -3.658,4.92 l -8.247,74.206 h -23.681 v 0.009 z"
   id="path5" />
	<path
   style="fill:#c97743"
   d="m 493.744,202.776 -3.992,12.352 c -3.605,0.861 -10.461,2.012 -21.431,2.012 -6.911,0 -20.557,0 -30.134,8.847 h -32.124 c -6.115,0 -11.434,-4.356 -12.641,-10.361 l -3.67,-18.358 c -0.897,-4.49 -5.264,-7.397 -9.753,-6.502 -4.49,0.896 -7.409,5.264 -6.502,9.753 l 3.671,18.367 c 1.37,6.856 5.087,12.773 10.217,16.986 -3.438,2.953 -10.881,6.359 -18.179,8.006 -2.665,0.597 -4.866,2.466 -5.894,4.998 -15.603,38.772 -57.116,57.238 -57.514,57.415 -2.742,1.183 -4.633,3.738 -4.954,6.702 l -8.028,72.232 h -21.708 c -1.825,0 -3.528,-0.708 -4.821,-1.99 -1.283,-1.283 -1.99,-2.997 -1.99,-4.81 v -20.293 c 0,-1.57 -0.442,-3.107 -1.294,-4.434 -35.199,-55.545 -2.279,-94.516 -0.774,-96.241 3.019,-3.428 2.698,-8.647 -0.718,-11.688 -3.429,-3.03 -8.671,-2.72 -11.712,0.708 -0.452,0.509 -11.191,12.772 -16.543,33.263 -0.673,2.599 -1.283,5.43 -1.769,8.438 -0.652,-0.165 -1.327,-0.265 -2.024,-0.265 -41.546,0 -73.892,2.698 -111.778,37.587 -21.564,19.85 -55.679,33.186 -74.002,33.186 -4.578,0 -8.294,3.716 -8.294,8.294 v 18.246 H 31.607 L 18.027,351.289 31.85,337.466 c 0.962,-0.962 1.67,-2.145 2.068,-3.439 C 46.58,292.67 86.5,181.112 118.724,161.782 c 16.123,-9.676 68.317,-23.068 100.266,-16.676 34.712,6.945 52.549,-1.46 68.285,-8.88 9.864,-4.643 18.379,-8.659 30.654,-8.659 9.201,0 15.769,4.357 22.725,8.979 6.458,4.28 13.126,8.714 21.508,8.714 10.008,0 17.063,-2.599 23.278,-4.899 3.153,-1.161 6.071,-2.223 9.267,-2.953 0.941,6.779 4.169,12.054 4.712,12.883 1.581,2.476 4.278,3.837 7.022,3.837 1.526,0 3.074,-0.42 4.445,-1.305 3.859,-2.477 4.999,-7.576 2.521,-11.435 -1.139,-1.847 -3.152,-6.623 -2.056,-9.62 0.861,-2.344 3.991,-3.804 6.469,-4.611 2.477,-0.807 3.494,-0.156 4.246,0.52 2.267,2.024 3.074,6.059 2.82,7.276 -1.106,4.445 1.594,8.946 6.038,10.063 3.473,0.863 6.968,-0.597 8.859,-3.384 30.21,14.608 31.339,27.613 32.08,36.469 0.121,1.371 0.232,2.654 0.42,3.948 0.372,2.502 1.301,8.795 21.461,20.727 z"
   id="path6" />
</g>
<path
   style="fill:#3d484a;stroke-width:0.692008"
   d="m 425.85247,210.4387 c 2.41788,1.31689 3.5583,4.17904 2.71682,6.80382 l -5.10425,15.81031 c -0.48233,1.50719 -1.56878,2.73966 -2.99224,3.42059 -1.09406,0.52039 -7.26954,3.10712 -21.85569,3.10712 -4.01779,0 -10.74411,0 -13.86645,3.9486 -1.08645,1.37778 -2.74727,2.17359 -4.49944,2.17359 h -24.2272 c 4.99699,10.72889 5.48694,33.00601 5.48694,41.216 9.15249,11.5247 15.68782,24.45694 20.98306,34.94086 5.60942,11.08804 11.40983,22.55877 16.12379,22.55877 H 404.74 c 3.16801,0 5.73951,2.5715 5.73951,5.73951 0,3.17563 -2.5715,5.73952 -5.73951,5.73952 h -36.73178 c -1.23939,0 -2.44902,-0.39722 -3.44343,-1.14805 l -23.6383,-17.72232 c -25.06176,-7.43078 -35.5616,-33.38869 -38.66802,-43.09895 -3.45105,2.2345 -6.41284,3.86418 -8.47918,4.92848 l -5.06619,45.5625 h 5.83086 c 3.16801,0 5.73952,2.5715 5.73952,5.73951 0,3.17563 -2.57151,5.73952 -5.73952,5.73952 h -32.4005 c -4.32367,0 -8.39475,-1.68297 -11.44789,-4.7361 -3.06075,-3.06076 -4.74441,-7.12492 -4.74441,-11.44789 v -12.39732 c -3.57353,-5.84678 -6.1907,-11.48664 -8.05012,-16.8504 -2.21927,4.79839 -4.69943,9.44314 -7.06333,13.87407 -3.86417,7.24671 -7.56849,14.19516 -9.22862,20.0793 h 11.7157 c 3.16801,0 5.73951,2.5715 5.73951,5.73952 0,3.17562 -2.5715,5.73951 -5.73951,5.73951 H 202.7152 c -0.84148,0 -1.67604,-0.18269 -2.43379,-0.54323 0,0 -3.1002,-1.44629 -6.19071,-2.94587 -1.82205,-0.88024 -3.27527,-1.60685 -4.33958,-2.15007 -2.23449,-1.15635 -5.01982,-2.58742 -5.01982,-6.22254 0,-14.27889 -4.95893,-20.79968 -10.2009,-27.70938 -2.11962,-2.78533 -4.2856,-5.65509 -5.99971,-8.96081 -1.57708,1.30097 -3.16801,2.67807 -4.78246,4.16312 -12.26031,11.28734 -34.97201,23.38572 -53.24586,25.63543 v 7.25363 h 0.38268 c 3.16801,0 5.73951,2.5715 5.73951,5.73951 0,3.17563 -2.5715,5.73952 -5.73951,5.73952 H 92.519158 c -2.349367,0 -4.453763,-1.42277 -5.326385,-3.60398 L 74.948384,321.68175 c -0.857398,-2.13485 -0.352232,-4.56864 1.270527,-6.19071 l 11.240977,-11.24098 c 1.829669,-5.81632 9.328959,-29.13284 19.452342,-53.79738 15.96324,-38.89639 30.72446,-62.61911 43.87123,-70.51008 14.32595,-8.59266 53.20088,-17.81505 77.54226,-12.94816 20.30974,4.06347 29.92865,-0.47472 40.11432,-5.27241 7.39203,-3.48287 15.03733,-7.08685 26.10254,-7.08685 9.83343,0 16.62134,4.50774 22.06952,8.12694 3.32925,2.21235 6.20592,4.11676 8.54007,4.11676 4.8745,0 8.24181,-1.2387 12.13643,-2.67808 3.74861,-1.3854 7.92695,-2.92235 13.54398,-3.33547 1.83659,-2.24972 4.72987,-4.46138 9.26737,-5.94643 5.37275,-1.75216 10.477,-0.71138 14.37923,2.92304 1.59162,1.47675 2.80817,3.23652 3.70363,5.09664 32.3313,13.78964 33.62467,28.97991 34.32221,37.17536 0.0381,0.47472 0.0768,0.90999 0.11418,1.30098 1.58608,1.84558 7.49376,5.89383 13.23327,9.02378 z m -12.40424,16.2698 2.76249,-8.54768 c -13.95018,-8.25704 -14.59306,-12.61116 -14.85326,-14.34048 -0.13009,-0.89546 -0.2076,-1.78331 -0.29064,-2.73205 -0.51278,-6.12981 -1.29336,-15.12868 -22.19961,-25.23684 -1.30859,1.92863 -3.72647,2.93827 -6.1305,2.34176 -3.07598,-0.77298 -4.94371,-3.88771 -4.17835,-6.96368 0.17577,-0.84287 -0.38268,-3.63512 -1.95146,-5.03505 -0.52039,-0.46711 -1.22416,-0.9183 -2.93826,-0.35984 -1.71411,0.55775 -3.88009,1.56878 -4.4766,3.19084 -0.75775,2.07395 0.63457,5.37898 1.42276,6.65712 1.71411,2.67046 0.92591,6.19901 -1.74455,7.91311 -0.94805,0.61243 -2.01997,0.90307 -3.07597,0.90307 -1.89749,0 -3.76522,-0.94113 -4.85928,-2.65523 -0.37507,-0.57368 -2.60956,-4.22402 -3.26074,-8.91514 -2.21166,0.50516 -4.23094,1.23938 -6.41284,2.0435 -4.30083,1.59162 -9.18295,3.39015 -16.10856,3.39015 -5.80041,0 -10.41472,-3.06837 -14.88371,-6.03016 -4.81361,-3.19846 -9.35802,-6.21354 -15.72588,-6.21354 -8.4944,0 -14.38685,2.77841 -21.21281,5.9921 -10.88944,5.13469 -23.23278,10.95033 -47.25376,6.14503 -22.10897,-4.42332 -58.22763,4.84405 -69.38488,11.53992 -22.29995,13.37651 -49.92491,90.57484 -58.686423,119.19491 -0.275419,0.89546 -0.765361,1.7141 -1.431072,2.37981 l -9.56701,9.56355 9.397468,23.48468 h 2.617174 v -12.62638 c 0,-3.16801 2.571503,-5.73951 5.739513,-5.73951 12.68035,0 36.2882,-9.22862 51.20997,-22.96498 26.21742,-24.14346 48.60111,-26.0105 77.35127,-26.0105 0.48233,0 0.94874,0.0699 1.40063,0.18338 0.33562,-2.08156 0.75774,-4.04063 1.22416,-5.83916 3.70362,-14.17994 11.1351,-22.66672 11.44788,-23.01826 2.1044,-2.37221 5.73191,-2.58673 8.1048,-0.48994 2.36459,2.10439 2.58673,5.71667 0.49686,8.08818 -1.04078,1.19372 -23.82237,28.16196 0.53562,66.59954 0.58959,0.9183 0.89546,1.98191 0.89546,3.06836 v 14.04292 c 0,1.2553 0.48994,2.44002 1.37778,3.32856 0.89546,0.88785 2.07395,1.3771 3.33617,1.3771 h 15.02211 l 5.55544,-49.98512 c 0.22214,-2.05181 1.53072,-3.8185 3.42821,-4.63784 0.27473,-0.12248 29.00205,-12.9011 39.80014,-39.73164 0.71139,-1.75216 2.2345,-3.04483 4.0787,-3.45865 5.05097,-1.14043 10.20089,-3.49741 12.58001,-5.54022 -3.55069,-2.91473 -6.12219,-7.00935 -7.07024,-11.75444 l -2.54036,-12.71011 c -0.62766,-3.10781 1.39301,-6.1305 4.49943,-6.74916 3.10712,-0.62004 6.12981,1.39301 6.74915,4.49944 l 2.53967,12.70388 c 0.83457,4.15551 4.51466,7.16989 8.74768,7.16989 h 22.23006 c 6.62736,-6.12219 16.0705,-6.12219 20.85297,-6.12219 7.5934,-10e-4 12.3385,-0.79719 14.83319,-1.39301 z m -43.5273,117.70917 h 11.91499 c -3.23029,-4.81361 -6.26752,-10.81263 -9.58846,-17.3867 -5.56444,-11.01885 -11.87763,-23.50059 -20.90625,-34.4364 -0.86501,-1.04839 -1.33073,-2.36459 -1.3162,-3.71885 0.14532,-13.32184 -1.17088,-29.43871 -3.58876,-36.50134 -3.83372,2.34868 -8.08126,3.84134 -10.98839,4.68351 -5.83086,12.89418 -14.90724,22.69648 -23.36288,29.68368 0.11487,0.27473 0.21452,0.56537 0.28303,0.86501 0.0768,0.30518 8.03491,31.99499 32.65309,38.64519 0.70377,0.19099 1.36187,0.51277 1.94385,0.94805 z m -149.20868,-25.4825 c 5.35683,-10.04035 10.85207,-20.37064 12.48867,-30.38054 -21.22804,0.008 -37.78779,1.03386 -55.22016,11.96136 1.25599,3.022 3.32095,5.75474 5.68623,8.86947 5.22673,6.87163 11.64718,15.32728 12.45753,31.23654 2.03588,1.01795 5.04404,2.46493 7.87435,3.79567 h 5.81633 c 1.59231,-8.04252 6.1305,-16.55975 10.89705,-25.4825 z"
   id="path7" />
</svg>
